<svg width="24" height="24" viewBox="0 0 24 24" fill="#BEBEBE" xmlns="http://www.w3.org/2000/svg">
<g clip-path="url(#clip0_8_128173)">
<path d="M23.2969 11.2969H22.6525C22.4854 8.70989 21.3988 6.30075 19.549 4.45097C17.6992 2.60123 15.2901 1.51458 12.7031 1.34747V0.703125C12.7031 0.314812 12.3883 0 12 0C11.6117 0 11.2969 0.314812 11.2969 0.703125V1.34747C8.70989 1.51458 6.30075 2.60123 4.45097 4.45097C2.60123 6.30075 1.51458 8.70989 1.34747 11.2969H0.703125C0.314812 11.2969 0 11.6117 0 12C0 12.3883 0.314812 12.7031 0.703125 12.7031H1.34747C1.51458 15.2901 2.60123 17.6992 4.45097 19.549C6.30075 21.3988 8.70989 22.4854 11.2969 22.6525V23.2969C11.2969 23.6852 11.6117 24 12 24C12.3883 24 12.7031 23.6852 12.7031 23.2969V22.6525C15.2901 22.4854 17.6992 21.3988 19.549 19.549C21.3988 17.6992 22.4854 15.2901 22.6525 12.7031H23.2969C23.6852 12.7031 24 12.3883 24 12C24 11.6117 23.6852 11.2969 23.2969 11.2969ZM12.7031 21.2432V20.4727C12.7031 20.0843 12.3883 19.7695 12 19.7695C11.6117 19.7695 11.2969 20.0843 11.2969 20.4727V21.2432C6.74489 20.9002 3.09984 17.2551 2.75681 12.7031H3.52734C3.91566 12.7031 4.23047 12.3883 4.23047 12C4.23047 11.6117 3.91566 11.2969 3.52734 11.2969H2.75681C3.09984 6.74489 6.74489 3.09984 11.2969 2.75686V3.52734C11.2969 3.91566 11.6117 4.23047 12 4.23047C12.3883 4.23047 12.7031 3.91566 12.7031 3.52734V2.75686C17.2551 3.09984 20.9002 6.74489 21.2432 11.2969H20.4727C20.0843 11.2969 19.7695 11.6117 19.7695 12C19.7695 12.3883 20.0843 12.7031 20.4727 12.7031H21.2432C20.9002 17.2551 17.2551 20.9002 12.7031 21.2432Z" fill="#BEBEBE"/>
<path d="M13.9849 11.1792C14.3606 10.7299 14.5873 10.152 14.5873 9.52188C14.5873 8.09524 13.4267 6.93457 12 6.93457C10.5734 6.93457 9.41271 8.09524 9.41271 9.52188C9.41271 10.1552 9.64179 10.7358 10.021 11.186C8.61185 11.9174 7.64355 13.4027 7.64355 15.1053C7.64355 16.1861 8.52288 17.0655 9.60377 17.0655H14.3962C15.4771 17.0655 16.3564 16.1861 16.3564 15.1053V15.0594C16.3564 13.8896 15.8992 12.7916 15.0689 11.9675C14.7448 11.6458 14.3795 11.3816 13.9849 11.1792ZM12 8.34087C12.6513 8.34087 13.181 8.8707 13.181 9.52193C13.181 10.1732 12.6513 10.7029 12 10.7029C11.3487 10.7029 10.8189 10.1731 10.8189 9.52188C10.8189 8.87065 11.3487 8.34087 12 8.34087ZM14.9502 15.1053C14.9502 15.4107 14.7017 15.6592 14.3962 15.6592H9.60373C9.29824 15.6592 9.04976 15.4107 9.04976 15.1053C9.04976 13.4652 10.3631 12.1213 11.9775 12.1093C12.771 12.1044 13.5161 12.4075 14.0783 12.9655C14.6405 13.5236 14.9502 14.2673 14.9502 15.0594V15.1053Z" fill="#BEBEBE"/>
</g>
<defs>
<clipPath id="clip0_8_128173">
<rect width="24" height="24" fill="#BEBEBE"/>
</clipPath>
</defs>
</svg>
