<svg width="24" height="24" viewBox="0 0 24 24" fill="#BEBEBE" xmlns="http://www.w3.org/2000/svg">
<g clip-path="url(#clip0_8_128183)">
<path d="M23.9714 1.79165C23.9194 0.838307 23.1612 0.0801974 22.2079 0.0281661C20.2842 -0.0769276 16.52 0.0253068 12.9205 1.88704C11.0856 2.83617 9.14498 4.44534 7.59627 6.30196C7.57719 6.32484 7.55863 6.34785 7.53969 6.37078L4.02501 6.64228C3.44648 6.68699 2.93118 6.99023 2.61121 7.47417L0.213367 11.101C-0.0293047 11.468 -0.0678828 11.9273 0.110102 12.3297C0.288133 12.732 0.653945 13.0124 1.08871 13.0798L4.04985 13.5384C4.0394 13.596 4.0289 13.6535 4.01929 13.7111C3.92071 14.3008 4.11609 14.907 4.54199 15.3329L8.66662 19.4576C9.01973 19.8107 9.49687 20.0054 9.98577 20.0054C10.0865 20.0054 10.1877 19.9971 10.2885 19.9802C10.3461 19.9706 10.4036 19.9601 10.4611 19.9497L10.9198 22.9109C10.9871 23.3456 11.2675 23.7115 11.6698 23.8895C11.8372 23.9635 12.0143 24.0001 12.1907 24.0001C12.4383 24 12.6842 23.9279 12.8985 23.7862L16.5254 21.3884C17.0093 21.0683 17.3125 20.553 17.3571 19.9746L17.6286 16.4599C17.6516 16.441 17.6746 16.4224 17.6975 16.4033C19.5542 14.8546 21.1634 12.914 22.1125 11.079C23.9743 7.47946 24.0764 3.71517 23.9714 1.79165ZM15.7498 20.2153L12.2805 22.509L11.8335 19.6231C13.2998 19.192 14.7502 18.5016 16.1321 17.5766L15.9552 19.8662C15.9442 20.009 15.8693 20.1363 15.7498 20.2153ZM9.66098 18.4632L5.5363 14.3385C5.43107 14.2333 5.38241 14.0854 5.40627 13.9429C5.5289 13.2097 5.71945 12.5116 5.95532 11.8541L12.1441 18.0429C11.3544 18.3258 10.647 18.4945 10.0566 18.5932C9.91391 18.617 9.76621 18.5684 9.66098 18.4632ZM4.13334 8.04435L6.4229 7.86749C5.49787 9.24932 4.8074 10.6998 4.37629 12.166L1.49048 11.7191L3.78426 8.24976C3.86329 8.13023 3.99056 8.05537 4.13334 8.04435ZM16.7969 15.3234C15.6609 16.2709 14.5583 16.9562 13.5419 17.4521L6.54721 10.4573C7.1968 9.13059 7.9896 8.02579 8.67613 7.20276C10.1093 5.48456 11.8919 4.00232 13.5666 3.13607C16.8701 1.42734 20.3506 1.33532 22.1313 1.43226C22.367 1.4451 22.5545 1.63256 22.5673 1.86829C22.6644 3.64898 22.5722 7.12945 20.8634 10.433C19.9972 12.1077 18.515 13.8902 16.7969 15.3234Z" fill="#BEBEBE"/>
<path d="M16.4398 11.0741C17.3399 11.074 18.2404 10.7313 18.9257 10.0461C19.5897 9.3821 19.9553 8.49925 19.9553 7.56025C19.9553 6.62125 19.5897 5.73841 18.9257 5.07443C17.555 3.70366 15.3246 3.70375 13.954 5.07443C13.29 5.73841 12.9243 6.62125 12.9243 7.56025C12.9243 8.49925 13.29 9.3821 13.954 10.0461C14.6394 10.7315 15.5394 11.0742 16.4398 11.0741ZM14.9483 6.06874C15.3595 5.6575 15.8996 5.45191 16.4398 5.45191C16.9799 5.45191 17.5201 5.6575 17.9313 6.06874C18.3297 6.46713 18.549 6.99682 18.549 7.56021C18.549 8.1236 18.3297 8.65333 17.9313 9.05172C17.1089 9.87414 15.7707 9.8741 14.9482 9.05172C14.5498 8.65333 14.3304 8.12364 14.3304 7.56025C14.3304 6.99686 14.5499 6.46713 14.9483 6.06874Z" fill="#BEBEBE"/>
<path d="M0.717262 19.7785C0.897215 19.7785 1.07717 19.7099 1.21442 19.5726L3.51003 17.277C3.78462 17.0024 3.78462 16.5572 3.51003 16.2826C3.23548 16.008 2.79026 16.008 2.51567 16.2826L0.220105 18.5782C-0.0544883 18.8528 -0.0544883 19.298 0.220105 19.5726C0.357355 19.7099 0.537309 19.7785 0.717262 19.7785Z" fill="#BEBEBE"/>
<path d="M5.61377 18.3861C5.33923 18.1115 4.89401 18.1115 4.61941 18.3861L0.205945 22.7996C-0.0686484 23.0742 -0.0686484 23.5194 0.205945 23.794C0.343242 23.9313 0.523148 23.9999 0.703102 23.9999C0.883055 23.9999 1.06301 23.9313 1.20026 23.7939L5.61373 19.3805C5.88837 19.1059 5.88837 18.6607 5.61377 18.3861Z" fill="#BEBEBE"/>
<path d="M6.72323 20.4901L4.42763 22.7857C4.15303 23.0603 4.15303 23.5055 4.42763 23.7801C4.56492 23.9174 4.74487 23.9861 4.92478 23.9861C5.10469 23.9861 5.28469 23.9174 5.42194 23.7801L7.71755 21.4845C7.99214 21.2099 7.99214 20.7647 7.71755 20.4901C7.443 20.2155 6.99778 20.2155 6.72323 20.4901Z" fill="#BEBEBE"/>
</g>
<defs>
<clipPath id="clip0_8_128183">
<rect width="24" height="24" fill="#BEBEBE"/>
</clipPath>
</defs>
</svg>
