<svg width="24" height="24" viewBox="0 0 24 24" fill="#BEBEBE" xmlns="http://www.w3.org/2000/svg">
<path d="M21.0374 0H5.22178C3.58828 0 2.25928 1.329 2.25928 2.9625V21.0375C2.25928 22.671 3.58828 24 5.22173 24H21.0374C21.4257 24 21.7405 23.6852 21.7405 23.2969V18.7782V0.703125C21.7405 0.314812 21.4258 0 21.0374 0ZM3.66557 2.9625C3.66557 2.10441 4.36378 1.40625 5.22178 1.40625H20.3343V18.075H5.22178C4.65121 18.075 4.1182 18.2376 3.66557 18.5182V2.9625ZM5.22182 22.5938C4.36368 22.5938 3.66557 21.8956 3.66557 21.0375C3.66557 20.1794 4.36368 19.4813 5.22178 19.4813H20.3343V22.5938H5.22182Z" fill="#BEBEBE"/>
<path d="M16.519 4.51855H7.48145C7.09318 4.51855 6.77832 4.83337 6.77832 5.22168C6.77832 5.60999 7.09318 5.9248 7.48145 5.9248H16.519C16.9074 5.9248 17.2221 5.60999 17.2221 5.22168C17.2221 4.83337 16.9073 4.51855 16.519 4.51855Z" fill="#BEBEBE"/>
</svg>
