<svg width="24" height="24" viewBox="0 0 24 24" fill="#BEBEBE" xmlns="http://www.w3.org/2000/svg">
<path d="M8.67753 17.2499C8.48805 17.2493 8.30585 17.1769 8.16753 17.0474C7.48263 16.3972 6.93723 15.6143 6.56454 14.7466C6.19184 13.8788 5.99964 12.9443 5.99964 11.9999C5.99964 11.0555 6.19184 10.121 6.56454 9.25323C6.93723 8.38548 7.48263 7.60265 8.16753 6.95241C8.31512 6.83273 8.50263 6.77354 8.69218 6.78678C8.88173 6.80002 9.05918 6.88472 9.1887 7.02375C9.31821 7.16279 9.39012 7.3458 9.3899 7.53581C9.38969 7.72582 9.31736 7.90867 9.18753 8.04741C8.65439 8.55843 8.23015 9.17204 7.94033 9.85129C7.65052 10.5305 7.50111 11.2614 7.50111 11.9999C7.50111 12.7384 7.65052 13.4693 7.94033 14.1485C8.23015 14.8278 8.65439 15.4414 9.18753 15.9524C9.29719 16.0551 9.37349 16.1883 9.40656 16.3348C9.43962 16.4814 9.42792 16.6345 9.37296 16.7743C9.31801 16.9141 9.22234 17.0342 9.09834 17.119C8.97435 17.2038 8.82775 17.2494 8.67753 17.2499ZM5.67753 19.2599C5.81722 19.1194 5.89562 18.9293 5.89562 18.7312C5.89562 18.533 5.81722 18.3429 5.67753 18.2024C4.83846 17.4019 4.17053 16.4395 3.71418 15.3733C3.25782 14.3072 3.02252 13.1596 3.02252 11.9999C3.02252 10.8402 3.25782 9.6926 3.71418 8.62648C4.17053 7.56036 4.83846 6.59792 5.67753 5.79741C5.82273 5.65718 5.90629 5.465 5.9098 5.26317C5.91332 5.06133 5.83651 4.86636 5.69628 4.72116C5.55604 4.57595 5.36387 4.4924 5.16204 4.48889C4.9602 4.48537 4.76523 4.56218 4.62003 4.70241C3.63207 5.64381 2.84556 6.77602 2.30815 8.03041C1.77075 9.2848 1.49365 10.6352 1.49365 11.9999C1.49365 13.3646 1.77075 14.715 2.30815 15.9694C2.84556 17.2238 3.63207 18.356 4.62003 19.2974C4.6922 19.3653 4.7771 19.4182 4.86984 19.4531C4.96258 19.488 5.06132 19.5042 5.16035 19.5007C5.25937 19.4972 5.35673 19.4741 5.44678 19.4328C5.53684 19.3915 5.61781 19.3327 5.68503 19.2599H5.67753ZM15.825 17.0474C16.5099 16.3972 17.0553 15.6143 17.428 14.7466C17.8007 13.8788 17.9929 12.9443 17.9929 11.9999C17.9929 11.0555 17.8007 10.121 17.428 9.25323C17.0553 8.38548 16.5099 7.60265 15.825 6.95241C15.7531 6.88494 15.6686 6.8323 15.5764 6.79748C15.4842 6.76266 15.386 6.74636 15.2874 6.74949C15.1889 6.75263 15.0919 6.77514 15.0021 6.81575C14.9122 6.85635 14.8312 6.91426 14.7638 6.98616C14.6963 7.05806 14.6437 7.14254 14.6089 7.23478C14.574 7.32703 14.5577 7.42523 14.5609 7.52377C14.564 7.62232 14.5865 7.71928 14.6271 7.80913C14.6677 7.89897 14.7256 7.97994 14.7975 8.04741C15.3335 8.55677 15.7603 9.16983 16.052 9.8493C16.3436 10.5288 16.494 11.2605 16.494 11.9999C16.494 12.7393 16.3436 13.471 16.052 14.1505C15.7603 14.83 15.3335 15.4431 14.7975 15.9524C14.6527 16.0879 14.5675 16.2752 14.5605 16.4734C14.5535 16.6716 14.6252 16.8645 14.76 17.0099C14.8308 17.0862 14.9167 17.147 15.0123 17.1883C15.1078 17.2296 15.2109 17.2506 15.315 17.2499C15.5045 17.2493 15.6867 17.1769 15.825 17.0474ZM19.365 19.2974C20.3559 18.3577 21.145 17.226 21.6842 15.9714C22.2235 14.7168 22.5016 13.3655 22.5016 11.9999C22.5016 10.6343 22.2235 9.28302 21.6842 8.02841C21.145 6.77379 20.3559 5.64213 19.365 4.70241C19.2174 4.58273 19.0299 4.52354 18.8404 4.53678C18.6508 4.55002 18.4734 4.63472 18.3439 4.77375C18.2143 4.91279 18.1424 5.0958 18.1427 5.28581C18.1429 5.47582 18.2152 5.65867 18.345 5.79741C19.1841 6.59792 19.852 7.56036 20.3084 8.62648C20.7647 9.6926 21 10.8402 21 11.9999C21 13.1596 20.7647 14.3072 20.3084 15.3733C19.852 16.4395 19.1841 17.4019 18.345 18.2024C18.2002 18.3379 18.115 18.5252 18.108 18.7234C18.101 18.9216 18.1727 19.1145 18.3075 19.2599C18.3775 19.3353 18.4621 19.3955 18.5563 19.4368C18.6505 19.4781 18.7522 19.4996 18.855 19.4999C19.0445 19.4993 19.2267 19.4269 19.365 19.2974ZM13.5 11.9999C13.5 11.7032 13.4121 11.4132 13.2472 11.1666C13.0824 10.9199 12.8481 10.7276 12.5741 10.6141C12.3 10.5006 11.9984 10.4709 11.7074 10.5287C11.4164 10.5866 11.1491 10.7295 10.9394 10.9392C10.7296 11.149 10.5867 11.4163 10.5289 11.7073C10.471 11.9982 10.5007 12.2998 10.6142 12.5739C10.7277 12.848 10.92 13.0823 11.1667 13.2471C11.4133 13.4119 11.7034 13.4999 12 13.4999C12.3979 13.4999 12.7794 13.3419 13.0607 13.0606C13.342 12.7793 13.5 12.3977 13.5 11.9999Z" fill="#BEBEBE"/>
</svg>
