<svg width="24" height="24" viewBox="0 0 24 24" fill="#BEBEBE" xmlns="http://www.w3.org/2000/svg">
<g clip-path="url(#clip0_8_128120)">
<path d="M12 22C6.486 22 2 17.514 2 12C2 6.486 6.486 2 12 2C17.514 2 22 6.486 22 12C22 17.514 17.514 22 12 22ZM12 3.5C7.313 3.5 3.5 7.313 3.5 12C3.5 16.687 7.313 20.5 12 20.5C16.687 20.5 20.5 16.687 20.5 12C20.5 7.313 16.687 3.5 12 3.5Z" fill="#BEBEBE"/>
<path d="M12 5C11.586 5 11.25 4.664 11.25 4.25V0.75C11.25 0.336 11.586 0 12 0C12.414 0 12.75 0.336 12.75 0.75V4.25C12.75 4.664 12.414 5 12 5Z" fill="#BEBEBE"/>
<path d="M23.25 12.75H19.75C19.336 12.75 19 12.414 19 12C19 11.586 19.336 11.25 19.75 11.25H23.25C23.664 11.25 24 11.586 24 12C24 12.414 23.664 12.75 23.25 12.75Z" fill="#BEBEBE"/>
<path d="M12 24C11.586 24 11.25 23.664 11.25 23.25V19.75C11.25 19.336 11.586 19 12 19C12.414 19 12.75 19.336 12.75 19.75V23.25C12.75 23.664 12.414 24 12 24Z" fill="#BEBEBE"/>
<path d="M4.25 12.75H0.75C0.336 12.75 0 12.414 0 12C0 11.586 0.336 11.25 0.75 11.25H4.25C4.664 11.25 5 11.586 5 12C5 12.414 4.664 12.75 4.25 12.75Z" fill="#BEBEBE"/>
<path d="M12 15C10.346 15 9 13.654 9 12C9 10.346 10.346 9 12 9C13.654 9 15 10.346 15 12C15 13.654 13.654 15 12 15ZM12 10.5C11.173 10.5 10.5 11.173 10.5 12C10.5 12.827 11.173 13.5 12 13.5C12.827 13.5 13.5 12.827 13.5 12C13.5 11.173 12.827 10.5 12 10.5Z" fill="#BEBEBE"/>
</g>
<defs>
<clipPath id="clip0_8_128120">
<rect width="24" height="24" fill="#BEBEBE"/>
</clipPath>
</defs>
</svg>
