<svg width="24" height="24" viewBox="0 0 24 24" fill="#BEBEBE" xmlns="http://www.w3.org/2000/svg">
<path d="M16 6.75H8C7.66848 6.75 7.35054 6.6183 7.11612 6.38388C6.8817 6.14946 6.75 5.83152 6.75 5.5V2.5C6.75 2.16848 6.8817 1.85054 7.11612 1.61612C7.35054 1.3817 7.66848 1.25 8 1.25H16C16.3315 1.25 16.6495 1.3817 16.8839 1.61612C17.1183 1.85054 17.25 2.16848 17.25 2.5V5.5C17.25 5.83152 17.1183 6.14946 16.8839 6.38388C16.6495 6.6183 16.3315 6.75 16 6.75ZM8.25 5.25H15.75V2.75H8.25V5.25Z" fill="#BEBEBE"/>
<path d="M19 22.75H5C4.53668 22.7474 4.09309 22.5622 3.76546 22.2345C3.43784 21.9069 3.25263 21.4633 3.25 21V5C3.25263 4.53668 3.43784 4.09309 3.76546 3.76546C4.09309 3.43784 4.53668 3.25263 5 3.25H7.5C7.69891 3.25 7.88968 3.32902 8.03033 3.46967C8.17098 3.61032 8.25 3.80109 8.25 4C8.25 4.19891 8.17098 4.38968 8.03033 4.53033C7.88968 4.67098 7.69891 4.75 7.5 4.75H5C4.9337 4.75 4.87011 4.77634 4.82322 4.82322C4.77634 4.87011 4.75 4.9337 4.75 5V21C4.75 21.0663 4.77634 21.1299 4.82322 21.1768C4.87011 21.2237 4.9337 21.25 5 21.25H19C19.0663 21.25 19.1299 21.2237 19.1768 21.1768C19.2237 21.1299 19.25 21.0663 19.25 21V5C19.25 4.9337 19.2237 4.87011 19.1768 4.82322C19.1299 4.77634 19.0663 4.75 19 4.75H16.5C16.3011 4.75 16.1103 4.67098 15.9697 4.53033C15.829 4.38968 15.75 4.19891 15.75 4C15.75 3.80109 15.829 3.61032 15.9697 3.46967C16.1103 3.32902 16.3011 3.25 16.5 3.25H19C19.4633 3.25263 19.9069 3.43784 20.2345 3.76546C20.5622 4.09309 20.7474 4.53668 20.75 5V21C20.7474 21.4633 20.5622 21.9069 20.2345 22.2345C19.9069 22.5622 19.4633 22.7474 19 22.75Z" fill="#BEBEBE"/>
<path d="M11.2501 16.4095C11.0654 16.4117 10.8867 16.3438 10.7501 16.2195L8.50006 14.2195C8.42643 14.1539 8.36647 14.0744 8.3236 13.9856C8.28073 13.8968 8.2558 13.8004 8.25022 13.702C8.24465 13.6035 8.25855 13.5049 8.29112 13.4119C8.3237 13.3188 8.37431 13.233 8.44006 13.1595C8.57396 13.0132 8.75979 12.925 8.95784 12.9138C9.1559 12.9025 9.35049 12.9692 9.50006 13.0995L11.2001 14.6195L14.4501 11.1695C14.5907 11.0291 14.7813 10.9502 14.9801 10.9502C15.1788 10.9502 15.3694 11.0291 15.5101 11.1695C15.6505 11.3102 15.7294 11.5008 15.7294 11.6995C15.7294 11.8983 15.6505 12.0889 15.5101 12.2295L11.7601 16.2295C11.617 16.3484 11.4361 16.4123 11.2501 16.4095Z" fill="#BEBEBE"/>
</svg>
