<svg width="24" height="24" viewBox="0 0 24 24" fill="#BEBEBE" xmlns="http://www.w3.org/2000/svg">
<path fill-rule="#BEBEBE" clip-rule="#BEBEBE" d="M22.0988 6.42948C19.9728 8.55548 14.9828 13.5445 13.7658 14.7575C13.5028 15.0195 13.1898 15.2265 12.8538 15.3615C11.8778 15.7665 9.49676 16.7005 8.79676 16.7475C8.37976 16.7755 7.97076 16.6215 7.67476 16.3255C7.37876 16.0295 7.22476 15.6205 7.25276 15.2035C7.29976 14.5035 8.23376 12.1245 8.63176 11.1525C8.77076 10.8075 8.97776 10.4945 9.24076 10.2325L17.5708 1.90148C17.9738 1.49848 18.5218 1.27148 19.0918 1.27148C19.6618 1.27148 20.2098 1.49848 20.6128 1.90148L22.0988 3.38748C22.5018 3.79048 22.7288 4.33848 22.7288 4.90848C22.7288 5.47848 22.5018 6.02648 22.0988 6.42948ZM8.75576 15.2445C9.43976 15.1585 11.4388 14.3245 12.2788 13.9755C12.2818 13.9745 12.2848 13.9735 12.2868 13.9725C12.4438 13.9095 12.5858 13.8155 12.7048 13.6965L12.7058 13.6955C13.9248 12.4825 18.9128 7.49448 21.0378 5.36848C21.1598 5.24648 21.2288 5.08148 21.2288 4.90848C21.2288 4.73548 21.1598 4.57048 21.0378 4.44848L19.5518 2.96248C19.4298 2.84048 19.2648 2.77148 19.0918 2.77148C18.9188 2.77148 18.7538 2.84048 18.6318 2.96248L10.3008 11.2935C10.1808 11.4125 10.0868 11.5555 10.0238 11.7125L10.0218 11.7165C9.67676 12.5585 8.84176 14.5595 8.75576 15.2445Z" fill="#BEBEBE"/>
<path fill-rule="#BEBEBE" clip-rule="#BEBEBE" d="M20.1179 7.34909C20.4099 7.64209 20.4099 8.11709 20.1179 8.41009C19.8249 8.70309 19.3499 8.70309 19.0569 8.41009L15.5899 4.94309C15.2969 4.65009 15.2969 4.17509 15.5899 3.88209C15.8829 3.59009 16.3579 3.59009 16.6509 3.88209L20.1179 7.34909Z" fill="#BEBEBE"/>
<path fill-rule="#BEBEBE" clip-rule="#BEBEBE" d="M13.9972 13.4709C14.2902 13.7629 14.2902 14.2389 13.9972 14.5309C13.7052 14.8239 13.2292 14.8239 12.9372 14.5309L9.47024 11.0639C9.17724 10.7719 9.17724 10.2959 9.47024 10.0039C9.76224 9.71093 10.2382 9.71093 10.5302 10.0039L13.9972 13.4709Z" fill="#BEBEBE"/>
<path fill-rule="#BEBEBE" clip-rule="#BEBEBE" d="M8.5 3.25C8.914 3.25 9.25 3.586 9.25 4C9.25 4.414 8.914 4.75 8.5 4.75H5C3.757 4.75 2.75 5.757 2.75 7V19C2.75 19.597 2.987 20.169 3.409 20.591C3.831 21.013 4.403 21.25 5 21.25H18C18.597 21.25 19.169 21.013 19.591 20.591C20.013 20.169 20.25 19.597 20.25 19V15.5C20.25 15.086 20.586 14.75 21 14.75C21.414 14.75 21.75 15.086 21.75 15.5V19C21.75 19.995 21.355 20.948 20.652 21.652C19.948 22.355 18.995 22.75 18 22.75H5C4.005 22.75 3.052 22.355 2.348 21.652C1.645 20.948 1.25 19.995 1.25 19V7C1.25 4.929 2.929 3.25 5 3.25H8.5Z" fill="#BEBEBE"/>
</svg>
