<svg width="24" height="24" viewBox="0 0 24 24" fill="#BEBEBE" xmlns="http://www.w3.org/2000/svg">
<g clip-path="url(#clip0_8_128150)">
<path d="M17.5423 12.5036L18.1314 11.9145C18.1316 11.9143 18.1318 11.9141 18.132 11.9139C18.1321 11.9137 18.1323 11.9136 18.1325 11.9134L20.2106 9.83531C20.2107 9.83517 20.2108 9.83507 20.211 9.83498C20.2111 9.83489 20.2112 9.83475 20.2113 9.8346L22.2897 7.75617C22.2898 7.75612 22.2898 7.75607 22.2899 7.75603C22.2899 7.75598 22.29 7.75593 22.29 7.75589L23.4316 6.61425C23.7982 6.24778 24 5.76046 24 5.24217C24 4.72387 23.7981 4.23656 23.4316 3.87014L20.13 0.568402C19.7635 0.201933 19.2762 4.25889e-05 18.7579 4.25889e-05C18.2395 4.25889e-05 17.7523 0.201886 17.3858 0.568402L11.4964 6.45768L7.49897 2.46018C6.82978 1.791 5.99109 1.31465 5.07352 1.08267L0.875484 0.0214645C0.635484 -0.0392387 0.381047 0.0308395 0.205969 0.206011C0.0308437 0.381089 -0.0392344 0.635386 0.0214688 0.87548L1.08272 5.07351C1.31466 5.99104 1.791 6.82978 2.46019 7.49896L6.45769 11.4964L0.568312 17.3857C0.201844 17.7523 0 18.2395 0 18.7578C0 19.2762 0.201844 19.7634 0.568359 20.1299L3.87009 23.4316C4.23661 23.7982 4.72388 24 5.24222 24C5.76052 24 6.24778 23.7982 6.61425 23.4316L9.83348 20.2124C9.834 20.212 9.83447 20.2115 9.83498 20.211C9.8355 20.2105 9.83597 20.21 9.83644 20.2095L12.5036 17.5424L17.9176 22.9565C18.6122 23.6511 19.5246 23.9984 20.437 23.9984C21.3495 23.9984 22.2618 23.6511 22.9564 22.9565C24.3457 21.5673 24.3457 19.3069 22.9564 17.9177L17.5423 12.5036ZM2.44603 4.72889L1.67372 1.67376L4.72884 2.44612C5.40061 2.6159 6.01463 2.96465 6.50456 3.45459L7.05891 4.00893L4.00884 7.059L3.4545 6.50465C2.96456 6.01467 2.61586 5.40065 2.44603 4.72889ZM5.0032 8.05331L8.05327 5.00325L10.5021 7.45204L7.452 10.5021L5.0032 8.05331ZM5.24222 22.5937C5.09953 22.5937 4.96542 22.5382 4.8645 22.4373L1.56272 19.1355C1.46184 19.0347 1.4063 18.9005 1.4063 18.7578C1.4063 18.6151 1.46184 18.481 1.56272 18.3801L18.3801 1.56271C18.481 1.46184 18.6152 1.40625 18.7579 1.40625C18.9006 1.40625 19.0347 1.46184 19.1356 1.56271L22.4373 4.8645C22.5382 4.96532 22.5938 5.09948 22.5938 5.24217C22.5938 5.38486 22.5382 5.51901 22.4373 5.61993L21.7927 6.26451L19.6479 4.11961C19.3734 3.84501 18.9282 3.84501 18.6535 4.11961C18.3789 4.39415 18.3789 4.83937 18.6535 5.11396L20.7984 7.25887L19.7138 8.34346L18.6084 7.2381C18.3338 6.96346 17.8886 6.96356 17.614 7.2381C17.3394 7.5127 17.3394 7.95787 17.614 8.23246L18.7194 9.33782L17.6348 10.4224L15.49 8.27751C15.2154 8.00292 14.7702 8.00292 14.4956 8.27751C14.221 8.55206 14.221 8.99728 14.4956 9.27187L16.6405 11.4167L15.5559 12.5013L14.4505 11.396C14.1759 11.1214 13.7307 11.1214 13.4561 11.396C13.1815 11.6705 13.1815 12.1157 13.4561 12.3903L14.5615 13.4957L13.4957 14.5615L11.3508 12.4166C11.0762 12.142 10.6311 12.142 10.3565 12.4166C10.0819 12.6912 10.0819 13.1364 10.3565 13.411L12.5013 15.5558L11.4167 16.6404L10.3114 15.5351C10.0368 15.2605 9.59161 15.2605 9.31702 15.5351C9.04242 15.8096 9.04242 16.2548 9.31702 16.5294L10.4224 17.6348L9.33778 18.7194L7.19297 16.5746C6.91842 16.3 6.4732 16.3 6.19861 16.5746C5.92402 16.8491 5.92402 17.2943 6.19861 17.5689L8.34342 19.7137L7.25883 20.7983L6.15347 19.693C5.87892 19.4184 5.4337 19.4184 5.15911 19.693C4.88452 19.9675 4.88452 20.4127 5.15911 20.6873L6.26447 21.7927L5.61989 22.4373C5.51902 22.5382 5.38486 22.5937 5.24222 22.5937ZM13.99 16.0559C13.991 16.055 13.992 16.054 13.9929 16.053C13.9939 16.0521 13.9949 16.0511 13.9958 16.0501L16.0523 13.9936C16.0526 13.9934 16.0529 13.9931 16.0531 13.9928C16.0533 13.9926 16.0536 13.9923 16.0539 13.992L16.548 13.4979L19.5275 16.4774L16.4774 19.5275L13.4979 16.548L13.99 16.0559ZM21.9621 21.9621C21.1212 22.8029 19.7529 22.8029 18.912 21.9621L17.4718 20.5218L20.5218 17.4717L21.9621 18.9119C22.803 19.7529 22.803 21.1212 21.9621 21.9621Z" fill="#BEBEBE"/>
</g>
<defs>
<clipPath id="clip0_8_128150">
<rect width="24" height="24" fill="#BEBEBE"/>
</clipPath>
</defs>
</svg>
