<svg width="24" height="24" viewBox="0 0 24 24" fill="#BEBEBE" xmlns="http://www.w3.org/2000/svg">
<path fill-rule="evenodd" clip-rule="evenodd" d="M17.75 9V3C17.75 2.536 17.566 2.091 17.237 1.763C16.909 1.434 16.464 1.25 16 1.25C13.557 1.25 7.249 1.25 4 1.25C3.271 1.25 2.571 1.54 2.055 2.055C1.54 2.571 1.25 3.271 1.25 4V19.5C1.25 19.914 1.586 20.25 2 20.25C2.414 20.25 2.75 19.914 2.75 19.5C2.75 19.5 2.75 8.592 2.75 4C2.75 3.668 2.882 3.351 3.116 3.116C3.351 2.882 3.668 2.75 4 2.75H16C16.066 2.75 16.13 2.776 16.177 2.823C16.224 2.87 16.25 2.934 16.25 3V9C16.25 9.414 16.586 9.75 17 9.75C17.414 9.75 17.75 9.414 17.75 9Z" fill="#BEBEBE"/>
<path fill-rule="evenodd" clip-rule="evenodd" d="M9 16.75H4.25C2.593 16.75 1.25 18.093 1.25 19.75C1.25 20.546 1.566 21.309 2.129 21.871C2.691 22.434 3.454 22.75 4.25 22.75H13C13.414 22.75 13.75 22.414 13.75 22C13.75 21.586 13.414 21.25 13 21.25H4.25C3.852 21.25 3.471 21.092 3.189 20.811C2.908 20.529 2.75 20.148 2.75 19.75C2.75 18.922 3.422 18.25 4.25 18.25H9C9.414 18.25 9.75 17.914 9.75 17.5C9.75 17.086 9.414 16.75 9 16.75Z" fill="#BEBEBE"/>
<path fill-rule="evenodd" clip-rule="evenodd" d="M6 6.75H13C13.414 6.75 13.75 6.414 13.75 6C13.75 5.586 13.414 5.25 13 5.25H6C5.586 5.25 5.25 5.586 5.25 6C5.25 6.414 5.586 6.75 6 6.75Z" fill="#BEBEBE"/>
<path fill-rule="evenodd" clip-rule="evenodd" d="M16 10.75C13.102 10.75 10.75 13.102 10.75 16C10.75 18.898 13.102 21.25 16 21.25C18.898 21.25 21.25 18.898 21.25 16C21.25 13.102 18.898 10.75 16 10.75ZM16 12.25C18.07 12.25 19.75 13.93 19.75 16C19.75 18.07 18.07 19.75 16 19.75C13.93 19.75 12.25 18.07 12.25 16C12.25 13.93 13.93 12.25 16 12.25Z" fill="#BEBEBE"/>
<path fill-rule="evenodd" clip-rule="evenodd" d="M22.5302 21.4702L20.0302 18.9702C19.7382 18.6772 19.2622 18.6772 18.9702 18.9702C18.6772 19.2622 18.6772 19.7382 18.9702 20.0302L21.4702 22.5302C21.7622 22.8232 22.2382 22.8232 22.5302 22.5302C22.8232 22.2382 22.8232 21.7622 22.5302 21.4702Z" fill="#BEBEBE"/>
</svg>
