<svg width="24" height="24" viewBox="0 0 24 24" fill="#BEBEBE" xmlns="http://www.w3.org/2000/svg">
<path d="M16.4501 14.2999L12.4501 4.7999C12.2501 4.3499 11.7501 4.3499 11.5501 4.7999L7.55007 14.2999C7.45007 14.4999 7.50007 14.6999 7.65007 14.8499C8.60007 15.8499 9.25007 17.1499 9.50007 18.4999H9.00007C8.70007 18.4999 8.50007 18.6999 8.50007 18.9999V22.4999C8.50007 22.7999 8.70007 22.9999 9.00007 22.9999H15.0001C15.3001 22.9999 15.5001 22.7999 15.5001 22.4999V18.9999C15.5001 18.6999 15.3001 18.4999 15.0001 18.4999H14.5501C14.8001 17.1499 15.4001 15.8499 16.3501 14.8499C16.5001 14.6999 16.5501 14.4999 16.4501 14.2999ZM12.0001 13.9999C12.3001 13.9999 12.5001 14.1999 12.5001 14.4999C12.5001 14.7999 12.3001 14.9999 12.0001 14.9999C11.7001 14.9999 11.5001 14.7999 11.5001 14.4999C11.5001 14.1999 11.7001 13.9999 12.0001 13.9999ZM14.5001 21.9999H9.50007V19.4999H14.5001V21.9999ZM13.5001 18.4999H10.5001C10.3001 16.9999 9.65007 15.5499 8.60007 14.3999L11.5001 7.4999V13.0999C10.7001 13.3999 10.3001 14.2499 10.6001 14.9999C10.9001 15.7999 11.7501 16.1999 12.5001 15.8999C13.2501 15.5999 13.7001 14.7499 13.4001 13.9999C13.2501 13.5499 12.9001 13.2499 12.5001 13.0999V7.4999L15.4001 14.3999C14.4001 15.5499 13.7501 16.9999 13.5001 18.4999Z" fill="#BEBEBE"/>
<path d="M13.0001 1H11.0001C10.7001 1 10.5001 1.2 10.5001 1.5V2H5.40009C5.15009 1.2 4.30009 0.8 3.50009 1.1C2.70009 1.4 2.30009 2.2 2.60009 3C2.90009 3.8 3.70009 4.2 4.50009 3.9C4.95009 3.75 5.25009 3.4 5.40009 3H7.35009C4.20009 5 3.50009 9.35 3.50009 9.45C3.45009 9.7 3.55009 10 4.00009 10C4.25009 10 4.45009 9.8 4.50009 9.55C4.50009 9.5 5.45009 3.4 10.5001 3V3.5C10.5001 3.8 10.7001 4 11.0001 4H13.0001C13.3001 4 13.5001 3.8 13.5001 3.5V3C18.1501 3.4 19.5001 9.5 19.5001 9.6C19.5501 9.85 19.7501 10.05 20.0001 10C20.6001 9.95 20.5001 9.4 20.5001 9.4C20.5001 9.35 19.5001 5 16.4001 3H18.6001C18.9001 3.8 19.7501 4.2 20.5001 3.9C21.3001 3.6 21.7001 2.75 21.4001 2C21.1001 1.2 20.2501 0.8 19.5001 1.1C19.0501 1.25 18.7501 1.6 18.6001 2H13.5001V1.5C13.5001 1.2 13.3001 1 13.0001 1ZM4.00009 3C3.70009 3 3.50009 2.8 3.50009 2.5C3.50009 2.2 3.70009 2 4.00009 2C4.30009 2 4.50009 2.2 4.50009 2.5C4.50009 2.8 4.30009 3 4.00009 3ZM12.5001 3H11.5001V2H12.5001V3ZM20.0001 2C20.3001 2 20.5001 2.2 20.5001 2.5C20.5001 2.8 20.3001 3 20.0001 3C19.7001 3 19.5001 2.8 19.5001 2.5C19.5001 2.2 19.7001 2 20.0001 2Z" fill="#BEBEBE"/>
</svg>
