<svg width="24" height="24" viewBox="0 0 24 24" fill="#BEBEBE" xmlns="http://www.w3.org/2000/svg">
<g clip-path="url(#clip0_8_128214)">
<path d="M7.29399 16.7063C7.08474 16.4971 7.01799 16.1828 7.12374 15.9068L9.44424 9.87456C9.52074 9.67656 9.67749 9.51981 9.87474 9.44331L15.907 7.12356C16.1845 7.01856 16.4965 7.08381 16.7065 7.29381C16.9157 7.50306 16.9825 7.81656 16.8767 8.09331L14.5562 14.1256C14.4797 14.3236 14.323 14.4803 14.1257 14.5568L8.09349 16.8766C7.81749 16.9823 7.50324 16.9156 7.29399 16.7063ZM10.7245 10.7243L9.12999 14.8703L13.276 13.2758L14.8705 9.12981L10.7245 10.7243Z" fill="#BEBEBE"/>
<path d="M12 23.25C5.79675 23.25 0.75 18.2033 0.75 12C0.75 5.79675 5.79675 0.75 12 0.75C18.2033 0.75 23.25 5.79675 23.25 12C23.25 18.2033 18.2033 23.25 12 23.25ZM12 2.25C6.624 2.25 2.25 6.624 2.25 12C2.25 17.376 6.624 21.75 12 21.75C17.376 21.75 21.75 17.376 21.75 12C21.75 6.624 17.376 2.25 12 2.25Z" fill="#BEBEBE"/>
</g>
<defs>
<clipPath id="clip0_8_128214">
<rect width="24" height="24" fill="#BEBEBE"/>
</clipPath>
</defs>
</svg>
