<svg width="35" height="36" viewBox="0 0 35 36" fill="none" xmlns="http://www.w3.org/2000/svg">
<mask id="path-1-outside-1_117_11428" maskUnits="userSpaceOnUse" x="2" y="1" width="33" height="36" fill="black">
<rect fill="white" x="2" y="1" width="33" height="36"/>
<path d="M3.824 27.744V24.384L21.008 2.4H26.192L9.152 24.384L6.704 23.616H33.536V27.744H3.824ZM22.496 36V27.744L22.64 23.616V16.32H27.152V36H22.496Z"/>
</mask>
<path d="M3.824 27.744H2.824V28.744H3.824V27.744ZM3.824 24.384L3.03613 23.7682L2.824 24.0395V24.384H3.824ZM21.008 2.4V1.4H20.5204L20.2201 1.78415L21.008 2.4ZM26.192 2.4L26.9824 3.01262L28.2323 1.4H26.192V2.4ZM9.152 24.384L8.85266 25.3381L9.51628 25.5463L9.94237 24.9966L9.152 24.384ZM6.704 23.616V22.616L6.40466 24.5701L6.704 23.616ZM33.536 23.616H34.536V22.616H33.536V23.616ZM33.536 27.744V28.744H34.536V27.744H33.536ZM22.496 36H21.496V37H22.496V36ZM22.496 27.744L21.4966 27.7091L21.496 27.7266V27.744H22.496ZM22.64 23.616L23.6394 23.6509L23.64 23.6334V23.616H22.64ZM22.64 16.32V15.32H21.64V16.32H22.64ZM27.152 16.32H28.152V15.32H27.152V16.32ZM27.152 36V37H28.152V36H27.152ZM4.824 27.744V24.384H2.824V27.744H4.824ZM4.61187 24.9998L21.7959 3.01584L20.2201 1.78415L3.03613 23.7682L4.61187 24.9998ZM21.008 3.4H26.192V1.4H21.008V3.4ZM25.4016 1.78737L8.36163 23.7714L9.94237 24.9966L26.9824 3.01262L25.4016 1.78737ZM9.45134 23.4299L7.00334 22.6619L6.40466 24.5701L8.85266 25.3381L9.45134 23.4299ZM6.704 24.616H33.536V22.616H6.704V24.616ZM32.536 23.616V27.744H34.536V23.616H32.536ZM33.536 26.744H3.824V28.744H33.536V26.744ZM23.496 36V27.744H21.496V36H23.496ZM23.4954 27.7789L23.6394 23.6509L21.6406 23.5811L21.4966 27.7091L23.4954 27.7789ZM23.64 23.616V16.32H21.64V23.616H23.64ZM22.64 17.32H27.152V15.32H22.64V17.32ZM26.152 16.32V36H28.152V16.32H26.152ZM27.152 35H22.496V37H27.152V35Z" fill="#3C3C46" mask="url(#path-1-outside-1_117_11428)"/>
<path d="M1.824 25.744V22.384L19.008 0.399998H24.192L7.152 22.384L4.704 21.616H31.536V25.744H1.824ZM20.496 34V25.744L20.64 21.616V14.32H25.152V34H20.496Z" fill="#3C3C46"/>
</svg>
