<svg width="250" height="68" viewBox="0 0 250 68" fill="none" xmlns="http://www.w3.org/2000/svg">
<rect width="250" height="68" rx="12" fill="#0C0D10"/>
<path d="M91.2109 46.5996L96.3681 35.2114H97.9787L103.152 46.5996H101.444L96.8399 36.1225H97.4906L92.8866 46.5996H91.2109ZM93.4072 43.7526L93.8464 42.4511H100.256L100.728 43.7526H93.4072ZM109.195 46.6972C108.479 46.6972 107.823 46.5345 107.226 46.2092C106.641 45.8729 106.169 45.3794 105.811 44.7287C105.464 44.0779 105.29 43.2645 105.29 42.2884C105.29 41.3122 105.458 40.4988 105.795 39.8481C106.142 39.1973 106.608 38.7092 107.194 38.3839C107.79 38.0585 108.457 37.8958 109.195 37.8958C110.041 37.8958 110.789 38.0802 111.44 38.4489C112.091 38.8177 112.606 39.3329 112.985 39.9945C113.365 40.6452 113.555 41.4099 113.555 42.2884C113.555 43.1669 113.365 43.9369 112.985 44.5985C112.606 45.2601 112.091 45.7753 111.44 46.1441C110.789 46.5128 110.041 46.6972 109.195 46.6972ZM104.623 49.7558V37.9771H106.12V40.3036L106.022 42.3046L106.185 44.3057V49.7558H104.623ZM109.065 45.3306C109.618 45.3306 110.111 45.2059 110.545 44.9565C110.99 44.707 111.337 44.3545 111.586 43.899C111.847 43.4326 111.977 42.8957 111.977 42.2884C111.977 41.6702 111.847 41.1387 111.586 40.694C111.337 40.2385 110.99 39.886 110.545 39.6366C110.111 39.3871 109.618 39.2624 109.065 39.2624C108.522 39.2624 108.029 39.3871 107.584 39.6366C107.15 39.886 106.803 40.2385 106.543 40.694C106.294 41.1387 106.169 41.6702 106.169 42.2884C106.169 42.8957 106.294 43.4326 106.543 43.899C106.803 44.3545 107.15 44.707 107.584 44.9565C108.029 45.2059 108.522 45.3306 109.065 45.3306ZM120.284 46.6972C119.568 46.6972 118.912 46.5345 118.316 46.2092C117.73 45.8729 117.258 45.3794 116.9 44.7287C116.553 44.0779 116.38 43.2645 116.38 42.2884C116.38 41.3122 116.548 40.4988 116.884 39.8481C117.231 39.1973 117.698 38.7092 118.283 38.3839C118.88 38.0585 119.547 37.8958 120.284 37.8958C121.13 37.8958 121.879 38.0802 122.529 38.4489C123.18 38.8177 123.695 39.3329 124.075 39.9945C124.454 40.6452 124.644 41.4099 124.644 42.2884C124.644 43.1669 124.454 43.9369 124.075 44.5985C123.695 45.2601 123.18 45.7753 122.529 46.1441C121.879 46.5128 121.13 46.6972 120.284 46.6972ZM115.713 49.7558V37.9771H117.209V40.3036L117.112 42.3046L117.275 44.3057V49.7558H115.713ZM120.154 45.3306C120.707 45.3306 121.201 45.2059 121.635 44.9565C122.079 44.707 122.426 44.3545 122.676 43.899C122.936 43.4326 123.066 42.8957 123.066 42.2884C123.066 41.6702 122.936 41.1387 122.676 40.694C122.426 40.2385 122.079 39.886 121.635 39.6366C121.201 39.3871 120.707 39.2624 120.154 39.2624C119.612 39.2624 119.118 39.3871 118.674 39.6366C118.24 39.886 117.893 40.2385 117.632 40.694C117.383 41.1387 117.258 41.6702 117.258 42.2884C117.258 42.8957 117.383 43.4326 117.632 43.899C117.893 44.3545 118.24 44.707 118.674 44.9565C119.118 45.2059 119.612 45.3306 120.154 45.3306ZM126.802 46.5996V34.5282H128.364V46.5996H126.802ZM135.185 46.6972C134.264 46.6972 133.45 46.5074 132.745 46.1278C132.051 45.7482 131.509 45.2276 131.118 44.566C130.739 43.9044 130.549 43.1452 130.549 42.2884C130.549 41.4316 130.733 40.6723 131.102 40.0107C131.482 39.3491 131.997 38.834 132.648 38.4652C133.309 38.0856 134.052 37.8958 134.876 37.8958C135.711 37.8958 136.449 38.0802 137.089 38.4489C137.729 38.8177 138.228 39.3383 138.586 40.0107C138.954 40.6723 139.139 41.4478 139.139 42.3372C139.139 42.4023 139.133 42.4782 139.123 42.5649C139.123 42.6517 139.117 42.7331 139.106 42.809H131.769V41.6864H138.293L137.658 42.0769C137.669 41.5237 137.555 41.0303 137.317 40.5964C137.078 40.1626 136.747 39.8264 136.324 39.5878C135.912 39.3383 135.429 39.2136 134.876 39.2136C134.334 39.2136 133.851 39.3383 133.428 39.5878C133.005 39.8264 132.675 40.168 132.436 40.6127C132.197 41.0465 132.078 41.5454 132.078 42.1094V42.3697C132.078 42.9446 132.208 43.4597 132.469 43.9153C132.74 44.3599 133.114 44.707 133.591 44.9565C134.068 45.2059 134.616 45.3306 135.234 45.3306C135.744 45.3306 136.205 45.2439 136.617 45.0703C137.04 44.8968 137.409 44.6365 137.723 44.2894L138.586 45.2981C138.195 45.7536 137.707 46.1007 137.121 46.3393C136.547 46.5779 135.901 46.6972 135.185 46.6972ZM149.223 46.7298C148.355 46.7298 147.526 46.5996 146.734 46.3393C145.942 46.0682 145.319 45.7211 144.863 45.2981L145.465 44.0291C145.899 44.4087 146.452 44.7233 147.124 44.9727C147.797 45.2222 148.496 45.3469 149.223 45.3469C149.885 45.3469 150.422 45.271 150.834 45.1191C151.246 44.9673 151.55 44.7612 151.745 44.5009C151.94 44.2298 152.038 43.9261 152.038 43.5899C152.038 43.1994 151.908 42.8849 151.647 42.6463C151.398 42.4077 151.067 42.2179 150.655 42.0769C150.254 41.925 149.809 41.7949 149.321 41.6864C148.833 41.578 148.339 41.4532 147.84 41.3122C147.352 41.1604 146.902 40.9706 146.49 40.7428C146.089 40.5151 145.763 40.2114 145.514 39.8318C145.264 39.4413 145.14 38.9424 145.14 38.3351C145.14 37.7494 145.292 37.2125 145.595 36.7244C145.91 36.2255 146.387 35.8297 147.027 35.5368C147.678 35.2331 148.502 35.0813 149.5 35.0813C150.161 35.0813 150.817 35.1681 151.468 35.3416C152.119 35.5151 152.683 35.7646 153.16 36.09L152.623 37.3915C152.135 37.0661 151.62 36.8329 151.078 36.6919C150.536 36.5401 150.009 36.4641 149.5 36.4641C148.86 36.4641 148.334 36.5455 147.922 36.7082C147.51 36.8709 147.206 37.0878 147.011 37.3589C146.826 37.6301 146.734 37.9338 146.734 38.27C146.734 38.6713 146.859 38.9912 147.108 39.2298C147.369 39.4685 147.699 39.6583 148.101 39.7992C148.513 39.9402 148.963 40.0704 149.451 40.1897C149.939 40.2982 150.427 40.4229 150.915 40.5639C151.414 40.7049 151.864 40.8893 152.265 41.117C152.678 41.3448 153.008 41.6485 153.258 42.0281C153.507 42.4077 153.632 42.8957 153.632 43.4923C153.632 44.0671 153.475 44.604 153.16 45.1029C152.846 45.5909 152.358 45.9868 151.696 46.2905C151.045 46.5833 150.221 46.7298 149.223 46.7298ZM158.742 46.6972C157.874 46.6972 157.202 46.464 156.725 45.9977C156.247 45.5313 156.009 44.8643 156.009 43.9966V36.09H157.571V43.9315C157.571 44.3979 157.684 44.7558 157.912 45.0053C158.151 45.2547 158.487 45.3794 158.921 45.3794C159.409 45.3794 159.816 45.2439 160.141 44.9727L160.629 46.0953C160.39 46.3013 160.103 46.4532 159.767 46.5508C159.441 46.6484 159.1 46.6972 158.742 46.6972ZM154.545 39.2624V37.9771H160.043V39.2624H154.545ZM165.924 46.6972C165.057 46.6972 164.287 46.5074 163.614 46.1278C162.942 45.7482 162.41 45.2276 162.02 44.566C161.629 43.8936 161.434 43.1344 161.434 42.2884C161.434 41.4316 161.629 40.6723 162.02 40.0107C162.41 39.3491 162.942 38.834 163.614 38.4652C164.287 38.0856 165.057 37.8958 165.924 37.8958C166.781 37.8958 167.546 38.0856 168.218 38.4652C168.902 38.834 169.433 39.3491 169.813 40.0107C170.203 40.6615 170.398 41.4207 170.398 42.2884C170.398 43.1452 170.203 43.9044 169.813 44.566C169.433 45.2276 168.902 45.7482 168.218 46.1278C167.546 46.5074 166.781 46.6972 165.924 46.6972ZM165.924 45.3306C166.477 45.3306 166.971 45.2059 167.405 44.9565C167.849 44.707 168.197 44.3545 168.446 43.899C168.695 43.4326 168.82 42.8957 168.82 42.2884C168.82 41.6702 168.695 41.1387 168.446 40.694C168.197 40.2385 167.849 39.886 167.405 39.6366C166.971 39.3871 166.477 39.2624 165.924 39.2624C165.371 39.2624 164.878 39.3871 164.444 39.6366C164.01 39.886 163.663 40.2385 163.403 40.694C163.142 41.1387 163.012 41.6702 163.012 42.2884C163.012 42.8957 163.142 43.4326 163.403 43.899C163.663 44.3545 164.01 44.707 164.444 44.9565C164.878 45.2059 165.371 45.3306 165.924 45.3306ZM172.558 46.5996V37.9771H174.055V40.3199L173.909 39.7342C174.147 39.1377 174.548 38.6821 175.112 38.3676C175.676 38.0531 176.371 37.8958 177.195 37.8958V39.4088C177.13 39.398 177.065 39.3925 177 39.3925C176.945 39.3925 176.891 39.3925 176.837 39.3925C176.002 39.3925 175.34 39.642 174.852 40.1409C174.364 40.6398 174.12 41.3611 174.12 42.3046V46.5996H172.558ZM182.88 46.6972C181.958 46.6972 181.144 46.5074 180.439 46.1278C179.745 45.7482 179.203 45.2276 178.813 44.566C178.433 43.9044 178.243 43.1452 178.243 42.2884C178.243 41.4316 178.428 40.6723 178.796 40.0107C179.176 39.3491 179.691 38.834 180.342 38.4652C181.003 38.0856 181.746 37.8958 182.571 37.8958C183.406 37.8958 184.143 38.0802 184.783 38.4489C185.423 38.8177 185.922 39.3383 186.28 40.0107C186.649 40.6723 186.833 41.4478 186.833 42.3372C186.833 42.4023 186.828 42.4782 186.817 42.5649C186.817 42.6517 186.811 42.7331 186.801 42.809H179.463V41.6864H185.987L185.353 42.0769C185.363 41.5237 185.25 41.0303 185.011 40.5964C184.772 40.1626 184.442 39.8264 184.019 39.5878C183.606 39.3383 183.124 39.2136 182.571 39.2136C182.028 39.2136 181.546 39.3383 181.123 39.5878C180.7 39.8264 180.369 40.168 180.13 40.6127C179.892 41.0465 179.772 41.5454 179.772 42.1094V42.3697C179.772 42.9446 179.903 43.4597 180.163 43.9153C180.434 44.3599 180.808 44.707 181.285 44.9565C181.763 45.2059 182.31 45.3306 182.929 45.3306C183.438 45.3306 183.899 45.2439 184.311 45.0703C184.734 44.8968 185.103 44.6365 185.418 44.2894L186.28 45.2981C185.889 45.7536 185.401 46.1007 184.816 46.3393C184.241 46.5779 183.596 46.6972 182.88 46.6972Z" fill="white"/>
<path d="M92.4303 27V19.4079H95.6298C96.4397 19.4079 97.1519 19.567 97.7665 19.8851C98.3883 20.2033 98.8691 20.6479 99.209 21.2192C99.556 21.7904 99.7296 22.452 99.7296 23.2039C99.7296 23.9559 99.556 24.6175 99.209 25.1887C98.8691 25.76 98.3883 26.2046 97.7665 26.5228C97.1519 26.8409 96.4397 27 95.6298 27H92.4303ZM93.5149 26.0564H95.5648C96.1938 26.0564 96.7361 25.9371 97.1916 25.6985C97.6544 25.4599 98.0123 25.1273 98.2654 24.7007C98.5185 24.2668 98.645 23.7679 98.645 23.2039C98.645 22.6327 98.5185 22.1338 98.2654 21.7072C98.0123 21.2806 97.6544 20.948 97.1916 20.7094C96.7361 20.4708 96.1938 20.3515 95.5648 20.3515H93.5149V26.0564ZM103.701 27.0651C103.123 27.0651 102.609 26.9385 102.161 26.6855C101.713 26.4324 101.358 26.0853 101.098 25.6443C100.838 25.196 100.708 24.6898 100.708 24.1258C100.708 23.5546 100.838 23.0485 101.098 22.6074C101.358 22.1664 101.713 21.8229 102.161 21.5771C102.609 21.324 103.123 21.1975 103.701 21.1975C104.272 21.1975 104.782 21.324 105.23 21.5771C105.686 21.8229 106.04 22.1664 106.293 22.6074C106.553 23.0413 106.684 23.5474 106.684 24.1258C106.684 24.6971 106.553 25.2032 106.293 25.6443C106.04 26.0853 105.686 26.4324 105.23 26.6855C104.782 26.9385 104.272 27.0651 103.701 27.0651ZM103.701 26.154C104.07 26.154 104.399 26.0709 104.688 25.9046C104.984 25.7383 105.216 25.5033 105.382 25.1996C105.548 24.8887 105.632 24.5308 105.632 24.1258C105.632 23.7137 105.548 23.3594 105.382 23.0629C105.216 22.7593 104.984 22.5243 104.688 22.358C104.399 22.1917 104.07 22.1085 103.701 22.1085C103.332 22.1085 103.003 22.1917 102.714 22.358C102.425 22.5243 102.193 22.7593 102.02 23.0629C101.846 23.3594 101.76 23.7137 101.76 24.1258C101.76 24.5308 101.846 24.8887 102.02 25.1996C102.193 25.5033 102.425 25.7383 102.714 25.9046C103.003 26.0709 103.332 26.154 103.701 26.154ZM109.179 27L107.043 21.2517H108.03L109.928 26.4577H109.461L111.435 21.2517H112.314L114.244 26.4577H113.789L115.73 21.2517H116.663L114.516 27H113.518L111.707 22.2495H112.01L110.177 27H109.179ZM120.789 21.1975C121.259 21.1975 121.671 21.2878 122.025 21.4686C122.387 21.6494 122.669 21.9241 122.871 22.2929C123.074 22.6617 123.175 23.128 123.175 23.692V27H122.134V23.8113C122.134 23.2546 121.997 22.8352 121.722 22.5532C121.454 22.2712 121.075 22.1302 120.583 22.1302C120.214 22.1302 119.892 22.2025 119.618 22.3471C119.343 22.4917 119.13 22.705 118.978 22.987C118.833 23.269 118.761 23.6197 118.761 24.0391V27H117.72V21.2517H118.717V22.8026L118.555 22.3905C118.743 22.0145 119.032 21.7217 119.422 21.512C119.813 21.3023 120.268 21.1975 120.789 21.1975ZM125.102 27V18.9524H126.143V27H125.102ZM130.593 27.0651C130.015 27.0651 129.501 26.9385 129.053 26.6855C128.605 26.4324 128.251 26.0853 127.99 25.6443C127.73 25.196 127.6 24.6898 127.6 24.1258C127.6 23.5546 127.73 23.0485 127.99 22.6074C128.251 22.1664 128.605 21.8229 129.053 21.5771C129.501 21.324 130.015 21.1975 130.593 21.1975C131.164 21.1975 131.674 21.324 132.123 21.5771C132.578 21.8229 132.932 22.1664 133.185 22.6074C133.446 23.0413 133.576 23.5474 133.576 24.1258C133.576 24.6971 133.446 25.2032 133.185 25.6443C132.932 26.0853 132.578 26.4324 132.123 26.6855C131.674 26.9385 131.164 27.0651 130.593 27.0651ZM130.593 26.154C130.962 26.154 131.291 26.0709 131.58 25.9046C131.877 25.7383 132.108 25.5033 132.274 25.1996C132.441 24.8887 132.524 24.5308 132.524 24.1258C132.524 23.7137 132.441 23.3594 132.274 23.0629C132.108 22.7593 131.877 22.5243 131.58 22.358C131.291 22.1917 130.962 22.1085 130.593 22.1085C130.225 22.1085 129.896 22.1917 129.606 22.358C129.317 22.5243 129.086 22.7593 128.912 23.0629C128.739 23.3594 128.652 23.7137 128.652 24.1258C128.652 24.5308 128.739 24.8887 128.912 25.1996C129.086 25.5033 129.317 25.7383 129.606 25.9046C129.896 26.0709 130.225 26.154 130.593 26.154ZM138.531 27V25.7853L138.477 25.5575V23.4859C138.477 23.0449 138.347 22.705 138.086 22.4664C137.833 22.2206 137.45 22.0977 136.937 22.0977C136.597 22.0977 136.264 22.1555 135.939 22.2712C135.614 22.3797 135.339 22.5279 135.115 22.7159L134.681 21.935C134.977 21.6964 135.332 21.5156 135.744 21.3927C136.163 21.2625 136.601 21.1975 137.056 21.1975C137.844 21.1975 138.452 21.3891 138.878 21.7723C139.305 22.1555 139.518 22.7412 139.518 23.5293V27H138.531ZM136.644 27.0651C136.217 27.0651 135.841 26.9928 135.516 26.8482C135.198 26.7035 134.952 26.5047 134.779 26.2516C134.605 25.9913 134.518 25.6985 134.518 25.3731C134.518 25.0622 134.591 24.7802 134.735 24.5271C134.887 24.2741 135.129 24.0716 135.462 23.9198C135.802 23.7679 136.257 23.692 136.828 23.692H138.65V24.4404H136.872C136.351 24.4404 136 24.5271 135.82 24.7007C135.639 24.8742 135.549 25.0839 135.549 25.3297C135.549 25.6117 135.661 25.8395 135.885 26.013C136.109 26.1793 136.42 26.2625 136.818 26.2625C137.208 26.2625 137.548 26.1757 137.837 26.0022C138.133 25.8286 138.347 25.5756 138.477 25.243L138.683 25.9588C138.546 26.2986 138.303 26.5698 137.956 26.7722C137.609 26.9675 137.172 27.0651 136.644 27.0651ZM143.82 27.0651C143.263 27.0651 142.765 26.9422 142.324 26.6963C141.89 26.4505 141.546 26.107 141.293 25.666C141.04 25.2249 140.914 24.7115 140.914 24.1258C140.914 23.5402 141.04 23.0304 141.293 22.5966C141.546 22.1555 141.89 21.8121 142.324 21.5662C142.765 21.3204 143.263 21.1975 143.82 21.1975C144.305 21.1975 144.742 21.3059 145.133 21.5228C145.523 21.7398 145.834 22.0651 146.065 22.499C146.304 22.9328 146.423 23.4751 146.423 24.1258C146.423 24.7766 146.308 25.3189 146.076 25.7527C145.852 26.1866 145.545 26.5156 145.154 26.7397C144.764 26.9566 144.319 27.0651 143.82 27.0651ZM143.907 26.154C144.269 26.154 144.594 26.0709 144.883 25.9046C145.18 25.7383 145.411 25.5033 145.577 25.1996C145.751 24.8887 145.838 24.5308 145.838 24.1258C145.838 23.7137 145.751 23.3594 145.577 23.0629C145.411 22.7593 145.18 22.5243 144.883 22.358C144.594 22.1917 144.269 22.1085 143.907 22.1085C143.538 22.1085 143.209 22.1917 142.92 22.358C142.631 22.5243 142.399 22.7593 142.226 23.0629C142.052 23.3594 141.966 23.7137 141.966 24.1258C141.966 24.5308 142.052 24.8887 142.226 25.1996C142.399 25.5033 142.631 25.7383 142.92 25.9046C143.209 26.0709 143.538 26.154 143.907 26.154ZM145.87 27V25.449L145.935 24.115L145.827 22.781V18.9524H146.868V27H145.87ZM154.213 27.0651C153.634 27.0651 153.121 26.9385 152.673 26.6855C152.224 26.4324 151.87 26.0853 151.61 25.6443C151.349 25.196 151.219 24.6898 151.219 24.1258C151.219 23.5546 151.349 23.0485 151.61 22.6074C151.87 22.1664 152.224 21.8229 152.673 21.5771C153.121 21.324 153.634 21.1975 154.213 21.1975C154.784 21.1975 155.294 21.324 155.742 21.5771C156.197 21.8229 156.552 22.1664 156.805 22.6074C157.065 23.0413 157.195 23.5474 157.195 24.1258C157.195 24.6971 157.065 25.2032 156.805 25.6443C156.552 26.0853 156.197 26.4324 155.742 26.6855C155.294 26.9385 154.784 27.0651 154.213 27.0651ZM154.213 26.154C154.581 26.154 154.91 26.0709 155.2 25.9046C155.496 25.7383 155.728 25.5033 155.894 25.1996C156.06 24.8887 156.143 24.5308 156.143 24.1258C156.143 23.7137 156.06 23.3594 155.894 23.0629C155.728 22.7593 155.496 22.5243 155.2 22.358C154.91 22.1917 154.581 22.1085 154.213 22.1085C153.844 22.1085 153.515 22.1917 153.226 22.358C152.936 22.5243 152.705 22.7593 152.532 23.0629C152.358 23.3594 152.271 23.7137 152.271 24.1258C152.271 24.5308 152.358 24.8887 152.532 25.1996C152.705 25.5033 152.936 25.7383 153.226 25.9046C153.515 26.0709 153.844 26.154 154.213 26.154ZM161.705 21.1975C162.175 21.1975 162.587 21.2878 162.941 21.4686C163.303 21.6494 163.585 21.9241 163.787 22.2929C163.99 22.6617 164.091 23.128 164.091 23.692V27H163.05V23.8113C163.05 23.2546 162.912 22.8352 162.637 22.5532C162.37 22.2712 161.99 22.1302 161.499 22.1302C161.13 22.1302 160.808 22.2025 160.533 22.3471C160.259 22.4917 160.045 22.705 159.893 22.987C159.749 23.269 159.676 23.6197 159.676 24.0391V27H158.635V21.2517H159.633V22.8026L159.47 22.3905C159.658 22.0145 159.948 21.7217 160.338 21.512C160.729 21.3023 161.184 21.1975 161.705 21.1975ZM170.904 27.0651C170.326 27.0651 169.878 26.9096 169.559 26.5987C169.241 26.2878 169.082 25.8431 169.082 25.2647V19.9936H170.123V25.2213C170.123 25.5322 170.199 25.7708 170.351 25.9371C170.51 26.1034 170.734 26.1866 171.024 26.1866C171.349 26.1866 171.62 26.0962 171.837 25.9154L172.162 26.6638C172.003 26.8012 171.812 26.9024 171.588 26.9675C171.371 27.0325 171.143 27.0651 170.904 27.0651ZM168.106 22.1085V21.2517H171.772V22.1085H168.106ZM176.491 21.1975C176.961 21.1975 177.373 21.2878 177.727 21.4686C178.089 21.6494 178.371 21.9241 178.573 22.2929C178.775 22.6617 178.877 23.128 178.877 23.692V27H177.836V23.8113C177.836 23.2546 177.698 22.8352 177.423 22.5532C177.156 22.2712 176.776 22.1302 176.285 22.1302C175.916 22.1302 175.594 22.2025 175.319 22.3471C175.045 22.4917 174.831 22.705 174.679 22.987C174.535 23.269 174.462 23.6197 174.462 24.0391V27H173.421V18.9524H174.462V22.8026L174.256 22.3905C174.444 22.0145 174.734 21.7217 175.124 21.512C175.514 21.3023 175.97 21.1975 176.491 21.1975ZM183.363 27.0651C182.749 27.0651 182.206 26.9385 181.736 26.6855C181.274 26.4324 180.912 26.0853 180.652 25.6443C180.399 25.2032 180.272 24.6971 180.272 24.1258C180.272 23.5546 180.395 23.0485 180.641 22.6074C180.894 22.1664 181.237 21.8229 181.671 21.5771C182.112 21.324 182.608 21.1975 183.157 21.1975C183.714 21.1975 184.206 21.3204 184.632 21.5662C185.059 21.8121 185.391 22.1591 185.63 22.6074C185.876 23.0485 185.999 23.5655 185.999 24.1584C185.999 24.2018 185.995 24.2524 185.988 24.3102C185.988 24.3681 185.984 24.4223 185.977 24.4729H181.086V23.7245H185.435L185.012 23.9848C185.019 23.6161 184.943 23.2871 184.784 22.9979C184.625 22.7087 184.404 22.4845 184.122 22.3254C183.848 22.1591 183.526 22.076 183.157 22.076C182.796 22.076 182.474 22.1591 182.192 22.3254C181.91 22.4845 181.689 22.7123 181.53 23.0087C181.371 23.2979 181.292 23.6305 181.292 24.0065V24.1801C181.292 24.5633 181.378 24.9067 181.552 25.2104C181.733 25.5069 181.982 25.7383 182.3 25.9046C182.619 26.0709 182.984 26.154 183.396 26.154C183.736 26.154 184.043 26.0962 184.318 25.9805C184.6 25.8648 184.846 25.6913 185.055 25.4599L185.63 26.1323C185.37 26.436 185.044 26.6674 184.654 26.8265C184.271 26.9855 183.84 27.0651 183.363 27.0651Z" fill="white"/>
<path d="M80.2657 32.3162C80.2924 30.1465 81.4068 28.0934 83.1746 26.957C82.0593 25.2916 80.1914 24.2356 78.2479 24.172C76.1751 23.9445 74.1656 25.469 73.1093 25.469C72.0326 25.469 70.4063 24.1946 68.655 24.2323C66.3723 24.3094 64.2442 25.6665 63.1337 27.7532C60.7463 32.0751 62.5271 38.4268 64.8139 41.9203C65.9581 43.631 67.2953 45.5418 69.0449 45.4741C70.7571 45.3998 71.3966 44.3324 73.4633 44.3324C75.5109 44.3324 76.1108 45.4741 77.896 45.431C79.7333 45.3998 80.8908 43.7127 81.9948 41.9859C82.8169 40.7669 83.4495 39.4198 83.8691 37.9943C81.71 37.0394 80.2682 34.7674 80.2657 32.3162Z" fill="white"/>
<path d="M76.8937 21.8746C77.8955 20.6171 78.389 19.0009 78.2695 17.3691C76.739 17.5372 75.3253 18.302 74.3101 19.5112C73.3173 20.6927 72.8006 22.2805 72.8983 23.8499C74.4293 23.8663 75.9344 23.1222 76.8937 21.8746Z" fill="white"/>
</svg>
