<svg width="250" height="68" viewBox="0 0 250 68" fill="none" xmlns="http://www.w3.org/2000/svg">
<rect width="250" height="68" rx="12" fill="#0C0D10"/>
<path d="M97.9891 46.7298C97.1106 46.7298 96.3025 46.5888 95.565 46.3068C94.8275 46.0139 94.1876 45.6072 93.6453 45.0866C93.103 44.5552 92.68 43.9369 92.3763 43.232C92.0727 42.527 91.9208 41.7515 91.9208 40.9055C91.9208 40.0596 92.0727 39.2841 92.3763 38.5791C92.68 37.8741 93.103 37.2613 93.6453 36.7407C94.1984 36.2093 94.8438 35.8025 95.5813 35.5206C96.3188 35.2277 97.1323 35.0813 98.0216 35.0813C98.9218 35.0813 99.7461 35.2277 100.494 35.5206C101.243 35.8134 101.877 36.2527 102.398 36.8383L101.389 37.847C100.923 37.3915 100.413 37.0607 99.86 36.8546C99.3177 36.6377 98.7266 36.5292 98.0867 36.5292C97.4359 36.5292 96.8286 36.6377 96.2646 36.8546C95.7114 37.0715 95.2288 37.3752 94.8167 37.7656C94.4154 38.1561 94.1008 38.6225 93.8731 39.1648C93.6561 39.6962 93.5477 40.2765 93.5477 40.9055C93.5477 41.5237 93.6561 42.104 93.8731 42.6463C94.1008 43.1777 94.4154 43.6441 94.8167 44.0454C95.2288 44.4359 95.7114 44.7395 96.2646 44.9565C96.8177 45.1734 97.4197 45.2818 98.0704 45.2818C98.6778 45.2818 99.258 45.1896 99.8112 45.0053C100.375 44.81 100.896 44.4901 101.373 44.0454L102.3 45.2818C101.736 45.7591 101.075 46.1224 100.316 46.3718C99.5671 46.6105 98.7917 46.7298 97.9891 46.7298ZM100.739 45.0703V40.8405H102.3V45.2818L100.739 45.0703ZM108.88 46.6972C108.013 46.6972 107.243 46.5074 106.57 46.1278C105.898 45.7482 105.366 45.2276 104.976 44.566C104.585 43.8936 104.39 43.1344 104.39 42.2884C104.39 41.4316 104.585 40.6723 104.976 40.0107C105.366 39.3491 105.898 38.834 106.57 38.4652C107.243 38.0856 108.013 37.8958 108.88 37.8958C109.737 37.8958 110.502 38.0856 111.174 38.4652C111.858 38.834 112.389 39.3491 112.769 40.0107C113.159 40.6615 113.354 41.4207 113.354 42.2884C113.354 43.1452 113.159 43.9044 112.769 44.566C112.389 45.2276 111.858 45.7482 111.174 46.1278C110.502 46.5074 109.737 46.6972 108.88 46.6972ZM108.88 45.3306C109.434 45.3306 109.927 45.2059 110.361 44.9565C110.806 44.707 111.153 44.3545 111.402 43.899C111.652 43.4326 111.776 42.8957 111.776 42.2884C111.776 41.6702 111.652 41.1387 111.402 40.694C111.153 40.2385 110.806 39.886 110.361 39.6366C109.927 39.3871 109.434 39.2624 108.88 39.2624C108.327 39.2624 107.834 39.3871 107.4 39.6366C106.966 39.886 106.619 40.2385 106.359 40.694C106.098 41.1387 105.968 41.6702 105.968 42.2884C105.968 42.8957 106.098 43.4326 106.359 43.899C106.619 44.3545 106.966 44.707 107.4 44.9565C107.834 45.2059 108.327 45.3306 108.88 45.3306ZM119.207 46.6972C118.34 46.6972 117.57 46.5074 116.897 46.1278C116.225 45.7482 115.693 45.2276 115.303 44.566C114.912 43.8936 114.717 43.1344 114.717 42.2884C114.717 41.4316 114.912 40.6723 115.303 40.0107C115.693 39.3491 116.225 38.834 116.897 38.4652C117.57 38.0856 118.34 37.8958 119.207 37.8958C120.064 37.8958 120.829 38.0856 121.501 38.4652C122.184 38.834 122.716 39.3491 123.096 40.0107C123.486 40.6615 123.681 41.4207 123.681 42.2884C123.681 43.1452 123.486 43.9044 123.096 44.566C122.716 45.2276 122.184 45.7482 121.501 46.1278C120.829 46.5074 120.064 46.6972 119.207 46.6972ZM119.207 45.3306C119.76 45.3306 120.254 45.2059 120.688 44.9565C121.132 44.707 121.479 44.3545 121.729 43.899C121.978 43.4326 122.103 42.8957 122.103 42.2884C122.103 41.6702 121.978 41.1387 121.729 40.694C121.479 40.2385 121.132 39.886 120.688 39.6366C120.254 39.3871 119.76 39.2624 119.207 39.2624C118.654 39.2624 118.161 39.3871 117.727 39.6366C117.293 39.886 116.946 40.2385 116.686 40.694C116.425 41.1387 116.295 41.6702 116.295 42.2884C116.295 42.8957 116.425 43.4326 116.686 43.899C116.946 44.3545 117.293 44.707 117.727 44.9565C118.161 45.2059 118.654 45.3306 119.207 45.3306ZM129.615 49.8534C128.824 49.8534 128.054 49.7395 127.305 49.5117C126.568 49.2948 125.966 48.9803 125.499 48.5681L126.248 47.3642C126.649 47.7113 127.143 47.9825 127.728 48.1777C128.314 48.3838 128.927 48.4868 129.567 48.4868C130.586 48.4868 131.335 48.2482 131.812 47.771C132.289 47.2937 132.528 46.5671 132.528 45.5909V43.7688L132.69 42.0606L132.609 40.3361V37.9771H134.089V45.4283C134.089 46.9467 133.71 48.0638 132.951 48.7796C132.191 49.4955 131.08 49.8534 129.615 49.8534ZM129.42 46.2417C128.585 46.2417 127.837 46.0682 127.175 45.7211C126.524 45.3632 126.004 44.8697 125.613 44.2406C125.234 43.6116 125.044 42.8849 125.044 42.0606C125.044 41.2255 125.234 40.4988 125.613 39.8806C126.004 39.2515 126.524 38.7635 127.175 38.4164C127.837 38.0693 128.585 37.8958 129.42 37.8958C130.158 37.8958 130.83 38.0476 131.438 38.3513C132.045 38.6442 132.528 39.0997 132.886 39.7179C133.254 40.3361 133.439 41.117 133.439 42.0606C133.439 42.9934 133.254 43.7688 132.886 44.3871C132.528 45.0053 132.045 45.4716 131.438 45.7862C130.83 46.0899 130.158 46.2417 129.42 46.2417ZM129.599 44.8751C130.174 44.8751 130.684 44.7558 131.128 44.5172C131.573 44.2786 131.92 43.9478 132.17 43.5248C132.43 43.1018 132.56 42.6138 132.56 42.0606C132.56 41.5075 132.43 41.0194 132.17 40.5964C131.92 40.1734 131.573 39.8481 131.128 39.6203C130.684 39.3817 130.174 39.2624 129.599 39.2624C129.024 39.2624 128.509 39.3817 128.054 39.6203C127.609 39.8481 127.257 40.1734 126.996 40.5964C126.747 41.0194 126.622 41.5075 126.622 42.0606C126.622 42.6138 126.747 43.1018 126.996 43.5248C127.257 43.9478 127.609 44.2786 128.054 44.5172C128.509 44.7558 129.024 44.8751 129.599 44.8751ZM137.074 46.5996V34.5282H138.635V46.5996H137.074ZM145.457 46.6972C144.535 46.6972 143.722 46.5074 143.017 46.1278C142.322 45.7482 141.78 45.2276 141.39 44.566C141.01 43.9044 140.82 43.1452 140.82 42.2884C140.82 41.4316 141.005 40.6723 141.373 40.0107C141.753 39.3491 142.268 38.834 142.919 38.4652C143.581 38.0856 144.323 37.8958 145.148 37.8958C145.983 37.8958 146.72 38.0802 147.36 38.4489C148 38.8177 148.499 39.3383 148.857 40.0107C149.226 40.6723 149.41 41.4478 149.41 42.3372C149.41 42.4023 149.405 42.4782 149.394 42.5649C149.394 42.6517 149.388 42.7331 149.378 42.809H142.04V41.6864H148.564L147.93 42.0769C147.941 41.5237 147.827 41.0303 147.588 40.5964C147.349 40.1626 147.019 39.8264 146.596 39.5878C146.184 39.3383 145.701 39.2136 145.148 39.2136C144.605 39.2136 144.123 39.3383 143.7 39.5878C143.277 39.8264 142.946 40.168 142.707 40.6127C142.469 41.0465 142.35 41.5454 142.35 42.1094V42.3697C142.35 42.9446 142.48 43.4597 142.74 43.9153C143.011 44.3599 143.385 44.707 143.863 44.9565C144.34 45.2059 144.887 45.3306 145.506 45.3306C146.015 45.3306 146.476 45.2439 146.889 45.0703C147.312 44.8968 147.68 44.6365 147.995 44.2894L148.857 45.2981C148.467 45.7536 147.979 46.1007 147.393 46.3393C146.818 46.5779 146.173 46.6972 145.457 46.6972ZM156.176 46.5996V35.2114H160.617C161.615 35.2114 162.466 35.3687 163.171 35.6832C163.876 35.9978 164.419 36.4533 164.798 37.0498C165.178 37.6463 165.368 38.3567 165.368 39.181C165.368 40.0053 165.178 40.7157 164.798 41.3122C164.419 41.8979 163.876 42.3535 163.171 42.6788C162.466 42.9934 161.615 43.1506 160.617 43.1506H157.071L157.803 42.386V46.5996H156.176ZM157.803 42.5487L157.071 41.7352H160.568C161.609 41.7352 162.396 41.5129 162.927 41.0682C163.47 40.6235 163.741 39.9945 163.741 39.181C163.741 38.3676 163.47 37.7385 162.927 37.2939C162.396 36.8492 161.609 36.6268 160.568 36.6268H157.071L157.803 35.8134V42.5487ZM167.689 46.5996V34.5282H169.251V46.5996H167.689ZM177.585 46.5996V44.7775L177.504 44.4359V41.3285C177.504 40.6669 177.309 40.1572 176.918 39.7992C176.538 39.4305 175.964 39.2461 175.194 39.2461C174.684 39.2461 174.185 39.3329 173.697 39.5064C173.209 39.6691 172.797 39.8914 172.46 40.1734L171.81 39.0021C172.254 38.6442 172.786 38.373 173.404 38.1886C174.033 37.9934 174.689 37.8958 175.373 37.8958C176.555 37.8958 177.466 38.1832 178.106 38.758C178.746 39.3329 179.066 40.2114 179.066 41.3936V46.5996H177.585ZM174.754 46.6972C174.114 46.6972 173.55 46.5888 173.062 46.3718C172.585 46.1549 172.216 45.8567 171.956 45.4771C171.696 45.0866 171.566 44.6474 171.566 44.1593C171.566 43.6929 171.674 43.2699 171.891 42.8903C172.119 42.5107 172.482 42.207 172.981 41.9793C173.491 41.7515 174.174 41.6376 175.031 41.6376H177.764V42.7602H175.096C174.315 42.7602 173.789 42.8903 173.518 43.1506C173.247 43.4109 173.111 43.7255 173.111 44.0942C173.111 44.5172 173.279 44.8588 173.615 45.1191C173.952 45.3686 174.418 45.4933 175.015 45.4933C175.6 45.4933 176.11 45.3632 176.544 45.1029C176.989 44.8426 177.309 44.463 177.504 43.9641L177.813 45.0378C177.607 45.5476 177.243 45.9543 176.723 46.258C176.202 46.5508 175.546 46.6972 174.754 46.6972ZM182.171 49.8534C181.759 49.8534 181.358 49.7829 180.967 49.6419C180.577 49.5117 180.241 49.3165 179.959 49.0562L180.626 47.8848C180.842 48.0909 181.081 48.2482 181.341 48.3566C181.602 48.4651 181.878 48.5193 182.171 48.5193C182.551 48.5193 182.865 48.4217 183.115 48.2265C183.364 48.0313 183.597 47.6842 183.814 47.1853L184.351 45.9977L184.514 45.8024L187.898 37.9771H189.427L185.246 47.4619C184.996 48.0692 184.714 48.5464 184.4 48.8935C184.096 49.2406 183.76 49.4846 183.391 49.6256C183.023 49.7774 182.616 49.8534 182.171 49.8534ZM184.221 46.8762L180.284 37.9771H181.911L185.262 45.656L184.221 46.8762Z" fill="white"/>
<path d="M95.618 27.0868C95.0324 27.0868 94.4937 26.9928 94.002 26.8048C93.5103 26.6095 93.0837 26.3384 92.7222 25.9913C92.3607 25.637 92.0787 25.2249 91.8762 24.7549C91.6737 24.2849 91.5725 23.7679 91.5725 23.2039C91.5725 22.64 91.6737 22.123 91.8762 21.653C92.0787 21.183 92.3607 20.7745 92.7222 20.4274C93.0909 20.0731 93.5212 19.802 94.0128 19.614C94.5045 19.4187 95.0468 19.3211 95.6397 19.3211C96.2399 19.3211 96.7894 19.4187 97.2883 19.614C97.7872 19.8092 98.2102 20.102 98.5573 20.4925L97.8848 21.1649C97.5739 20.8612 97.2341 20.6407 96.8653 20.5033C96.5038 20.3587 96.1097 20.2864 95.6831 20.2864C95.2493 20.2864 94.8444 20.3587 94.4684 20.5033C94.0996 20.6479 93.7778 20.8504 93.5031 21.1107C93.2356 21.371 93.0259 21.6819 92.874 22.0434C92.7294 22.3977 92.6571 22.7846 92.6571 23.2039C92.6571 23.6161 92.7294 24.0029 92.874 24.3645C93.0259 24.7188 93.2356 25.0297 93.5031 25.2972C93.7778 25.5575 94.0996 25.76 94.4684 25.9046C94.8371 26.0492 95.2384 26.1215 95.6723 26.1215C96.0772 26.1215 96.464 26.06 96.8328 25.9371C97.2088 25.807 97.5558 25.5937 97.874 25.2972L98.4922 26.1215C98.1162 26.4396 97.6751 26.6819 97.169 26.8482C96.6701 27.0072 96.1531 27.0868 95.618 27.0868ZM97.451 25.9805V23.1606H98.4922V26.1215L97.451 25.9805ZM101.556 22.6833H105.46V23.6052H101.556V22.6833ZM101.653 26.0564H106.078V27H100.569V19.4079H105.927V20.3515H101.653V26.0564ZM109.342 27V20.3515H106.739V19.4079H113.019V20.3515H110.416V27H109.342ZM117.113 27V19.4079H118.198V27H117.113ZM121.978 27V20.3515H119.375V19.4079H125.655V20.3515H123.052V27H121.978ZM133.176 27.0868C132.598 27.0868 132.059 26.9892 131.56 26.7939C131.068 26.5987 130.642 26.3276 130.28 25.9805C129.919 25.6262 129.637 25.214 129.434 24.7441C129.232 24.2741 129.131 23.7607 129.131 23.2039C129.131 22.6472 129.232 22.1338 129.434 21.6638C129.637 21.1938 129.919 20.7853 130.28 20.4382C130.642 20.084 131.068 19.8092 131.56 19.614C132.052 19.4187 132.59 19.3211 133.176 19.3211C133.755 19.3211 134.286 19.4187 134.77 19.614C135.262 19.802 135.689 20.0731 136.05 20.4274C136.419 20.7745 136.701 21.183 136.896 21.653C137.099 22.123 137.2 22.64 137.2 23.2039C137.2 23.7679 137.099 24.2849 136.896 24.7549C136.701 25.2249 136.419 25.637 136.05 25.9913C135.689 26.3384 135.262 26.6095 134.77 26.8048C134.286 26.9928 133.755 27.0868 133.176 27.0868ZM133.176 26.1215C133.595 26.1215 133.982 26.0492 134.337 25.9046C134.698 25.76 135.009 25.5575 135.269 25.2972C135.537 25.0297 135.743 24.7188 135.888 24.3645C136.039 24.0102 136.115 23.6233 136.115 23.2039C136.115 22.7846 136.039 22.3977 135.888 22.0434C135.743 21.6891 135.537 21.3818 135.269 21.1215C135.009 20.854 134.698 20.6479 134.337 20.5033C133.982 20.3587 133.595 20.2864 133.176 20.2864C132.749 20.2864 132.355 20.3587 131.994 20.5033C131.64 20.6479 131.329 20.854 131.061 21.1215C130.794 21.3818 130.584 21.6891 130.432 22.0434C130.287 22.3977 130.215 22.7846 130.215 23.2039C130.215 23.6233 130.287 24.0102 130.432 24.3645C130.584 24.7188 130.794 25.0297 131.061 25.2972C131.329 25.5575 131.64 25.76 131.994 25.9046C132.355 26.0492 132.749 26.1215 133.176 26.1215ZM138.858 27V19.4079H139.747L144.769 25.6443H144.302V19.4079H145.387V27H144.497L139.476 20.7636H139.942V27H138.858Z" fill="white"/>
<path d="M72.0667 32.2785L61.1172 45.0479C61.1176 45.0505 61.1184 45.0527 61.1188 45.0554C61.4546 46.4419 62.6072 47.4629 63.9752 47.4629C64.522 47.4629 65.0354 47.3004 65.4757 47.0153L65.5107 46.9928L77.8357 39.1784L72.0667 32.2785Z" fill="#EA4335"/>
<path d="M83.1388 30.1087L83.1283 30.1008L77.8073 26.7115L71.8125 32.5728L77.8282 39.1816L83.1211 35.826C84.0491 35.2756 84.679 34.2007 84.679 32.9611C84.679 31.7305 84.0575 30.661 83.1388 30.1087Z" fill="#FBBC04"/>
<path d="M61.1004 20.8274C61.0346 21.0941 61 21.3734 61 21.6635V44.2288C61 44.5184 61.0342 44.7987 61.1008 45.0645L72.4272 32.6211L61.1004 20.8274Z" fill="#4285F4"/>
<path d="M72.1478 32.9805L77.8153 26.7551L65.5042 18.9125C65.0567 18.618 64.5345 18.448 63.9756 18.448C62.6076 18.448 61.4535 19.4708 61.1176 20.8591C61.1172 20.8604 61.1172 20.8613 61.1172 20.8626L72.1478 32.9805Z" fill="#34A853"/>
</svg>
