<svg width="20" height="36" viewBox="0 0 20 36" fill="none" xmlns="http://www.w3.org/2000/svg">
<mask id="path-1-outside-1_117_11416" maskUnits="userSpaceOnUse" x="1" y="1" width="15" height="36" fill="black">
<rect fill="white" x="1" y="1" width="15" height="36"/>
<path d="M9.968 36V4.32L12.032 6.576H2.384V2.4H14.72V36H9.968Z"/>
</mask>
<path d="M9.968 36H8.968V37H9.968V36ZM9.968 4.32L10.7058 3.64499L8.968 1.74552V4.32H9.968ZM12.032 6.576V7.576H14.3023L12.7698 5.90098L12.032 6.576ZM2.384 6.576H1.384V7.576H2.384V6.576ZM2.384 2.4V1.4H1.384V2.4H2.384ZM14.72 2.4H15.72V1.4H14.72V2.4ZM14.72 36V37H15.72V36H14.72ZM10.968 36V4.32H8.968V36H10.968ZM9.2302 4.99501L11.2942 7.25101L12.7698 5.90098L10.7058 3.64499L9.2302 4.99501ZM12.032 5.576H2.384V7.576H12.032V5.576ZM3.384 6.576V2.4H1.384V6.576H3.384ZM2.384 3.4H14.72V1.4H2.384V3.4ZM13.72 2.4V36H15.72V2.4H13.72ZM14.72 35H9.968V37H14.72V35Z" fill="#3C3C46" mask="url(#path-1-outside-1_117_11416)"/>
<path d="M7.968 34V2.32L10.032 4.576H0.384V0.399998H12.72V34H7.968Z" fill="#3C3C46"/>
</svg>
