<svg width="30" height="36" viewBox="0 0 30 36" fill="none" xmlns="http://www.w3.org/2000/svg">
<mask id="path-1-outside-1_117_11414" maskUnits="userSpaceOnUse" x="1" y="1" width="28" height="36" fill="black">
<rect fill="white" x="1" y="1" width="28" height="36"/>
<path d="M3.776 36V32.736L17.456 19.536C18.672 18.384 19.568 17.376 20.144 16.512C20.752 15.616 21.152 14.8 21.344 14.064C21.568 13.296 21.68 12.56 21.68 11.856C21.68 10.128 21.072 8.768 19.856 7.776C18.64 6.784 16.864 6.288 14.528 6.288C12.736 6.288 11.12 6.592 9.68 7.2C8.24 7.776 6.992 8.688 5.936 9.936L2.672 7.104C3.952 5.472 5.664 4.224 7.808 3.36C9.984 2.464 12.368 2.016 14.96 2.016C17.296 2.016 19.328 2.4 21.056 3.168C22.784 3.904 24.112 4.976 25.04 6.384C26 7.792 26.48 9.456 26.48 11.376C26.48 12.464 26.336 13.536 26.048 14.592C25.76 15.648 25.216 16.768 24.416 17.952C23.616 19.136 22.464 20.464 20.96 21.936L8.768 33.696L7.616 31.824H27.92V36H3.776Z"/>
</mask>
<path d="M3.776 36H2.776V37H3.776V36ZM3.776 32.736L3.08163 32.0164L2.776 32.3113V32.736H3.776ZM17.456 19.536L16.7682 18.81L16.7616 18.8164L17.456 19.536ZM20.144 16.512L19.3165 15.9505L19.312 15.9573L20.144 16.512ZM21.344 14.064L20.384 13.784L20.38 13.7977L20.3764 13.8116L21.344 14.064ZM19.856 7.776L19.2239 8.55086L19.2239 8.55087L19.856 7.776ZM9.68 7.2L10.0514 8.12848L10.0602 8.12495L10.069 8.12125L9.68 7.2ZM5.936 9.936L5.28065 10.6913L6.04539 11.3548L6.69939 10.5819L5.936 9.936ZM2.672 7.104L1.88515 6.48686L1.29785 7.23566L2.01665 7.85932L2.672 7.104ZM7.808 3.36L8.18179 4.28755L8.18875 4.28468L7.808 3.36ZM21.056 3.168L20.6499 4.08181L20.657 4.08497L20.6641 4.08802L21.056 3.168ZM25.04 6.384L24.205 6.93431L24.2094 6.94086L24.2138 6.94733L25.04 6.384ZM26.048 14.592L27.0128 14.8551V14.8551L26.048 14.592ZM24.416 17.952L23.5874 17.3921V17.3921L24.416 17.952ZM20.96 21.936L21.6543 22.6558L21.6595 22.6507L20.96 21.936ZM8.768 33.696L7.91634 34.2201L8.56771 35.2786L9.46224 34.4157L8.768 33.696ZM7.616 31.824V30.824H5.82644L6.76434 32.3481L7.616 31.824ZM27.92 31.824H28.92V30.824H27.92V31.824ZM27.92 36V37H28.92V36H27.92ZM4.776 36V32.736H2.776V36H4.776ZM4.47037 33.4556L18.1504 20.2556L16.7616 18.8164L3.08163 32.0164L4.47037 33.4556ZM18.1437 20.262C19.3853 19.0857 20.3412 18.0191 20.9761 17.0667L19.312 15.9573C18.7949 16.7329 17.9587 17.6823 16.7683 18.81L18.1437 20.262ZM20.9715 17.0735C21.6186 16.1198 22.0815 15.1986 22.3116 14.3164L20.3764 13.8116C20.2225 14.4014 19.8854 15.1122 19.3165 15.9505L20.9715 17.0735ZM22.304 14.344C22.551 13.4972 22.68 12.6666 22.68 11.856H20.68C20.68 12.4534 20.585 13.0948 20.384 13.784L22.304 14.344ZM22.68 11.856C22.68 9.86209 21.9624 8.20385 20.4881 7.00113L19.2239 8.55087C20.1816 9.33215 20.68 10.3939 20.68 11.856H22.68ZM20.4881 7.00114C19.0246 5.80724 16.9859 5.288 14.528 5.288V7.288C16.7421 7.288 18.2554 7.76076 19.2239 8.55086L20.4881 7.00114ZM14.528 5.288C12.6218 5.288 10.8708 5.61172 9.29103 6.27875L10.069 8.12125C11.3692 7.57228 12.8502 7.288 14.528 7.288V5.288ZM9.30861 6.27152C7.70856 6.91154 6.32832 7.92422 5.17261 9.29006L6.69939 10.5819C7.65568 9.45178 8.77144 8.64046 10.0514 8.12848L9.30861 6.27152ZM6.59135 9.18068L3.32735 6.34867L2.01665 7.85932L5.28065 10.6913L6.59135 9.18068ZM3.45885 7.72114C4.61873 6.24229 6.18124 5.0937 8.18178 4.28752L7.43422 2.43248C5.14676 3.35429 3.28527 4.7017 1.88515 6.48686L3.45885 7.72114ZM8.18875 4.28468C10.2323 3.44323 12.4853 3.016 14.96 3.016V1.016C12.2507 1.016 9.73574 1.48477 7.42725 2.43532L8.18875 4.28468ZM14.96 3.016C17.1881 3.016 19.0761 3.38235 20.6499 4.08181L21.4621 2.25419C19.5799 1.41765 17.4039 1.016 14.96 1.016V3.016ZM20.6641 4.08802C22.2327 4.7561 23.3973 5.70877 24.205 6.93431L25.875 5.83368C24.8267 4.24323 23.3353 3.0519 21.4479 2.24798L20.6641 4.08802ZM24.2138 6.94733C25.0465 8.16874 25.48 9.63058 25.48 11.376H27.48C27.48 9.28142 26.9535 7.41526 25.8662 5.82066L24.2138 6.94733ZM25.48 11.376C25.48 12.3746 25.348 13.3581 25.0832 14.3289L27.0128 14.8551C27.324 13.7139 27.48 12.5534 27.48 11.376H25.48ZM25.0832 14.3289C24.8313 15.2525 24.3438 16.2728 23.5874 17.3921L25.2446 18.5119C26.0882 17.2632 26.6887 16.0435 27.0128 14.8551L25.0832 14.3289ZM23.5874 17.3921C22.8383 18.5009 21.7367 19.7766 20.2605 21.2213L21.6595 22.6507C23.1913 21.1514 24.3937 19.7711 25.2446 18.5119L23.5874 17.3921ZM20.2658 21.2163L8.07376 32.9763L9.46224 34.4157L21.6542 22.6557L20.2658 21.2163ZM9.61966 33.1719L8.46766 31.2999L6.76434 32.3481L7.91634 34.2201L9.61966 33.1719ZM7.616 32.824H27.92V30.824H7.616V32.824ZM26.92 31.824V36H28.92V31.824H26.92ZM27.92 35H3.776V37H27.92V35Z" fill="#3C3C46" mask="url(#path-1-outside-1_117_11414)"/>
<path d="M1.776 34V30.736L15.456 17.536C16.672 16.384 17.568 15.376 18.144 14.512C18.752 13.616 19.152 12.8 19.344 12.064C19.568 11.296 19.68 10.56 19.68 9.856C19.68 8.128 19.072 6.768 17.856 5.776C16.64 4.784 14.864 4.288 12.528 4.288C10.736 4.288 9.12 4.592 7.68 5.2C6.24 5.776 4.992 6.688 3.936 7.936L0.672 5.104C1.952 3.472 3.664 2.224 5.808 1.36C7.984 0.464 10.368 0.0159998 12.96 0.0159998C15.296 0.0159998 17.328 0.4 19.056 1.168C20.784 1.904 22.112 2.976 23.04 4.384C24 5.792 24.48 7.456 24.48 9.376C24.48 10.464 24.336 11.536 24.048 12.592C23.76 13.648 23.216 14.768 22.416 15.952C21.616 17.136 20.464 18.464 18.96 19.936L6.768 31.696L5.616 29.824H25.92V34H1.776Z" fill="#3C3C46"/>
</svg>
