<svg width="30" height="37" viewBox="0 0 30 37" fill="none" xmlns="http://www.w3.org/2000/svg">
<mask id="path-1-outside-1_117_11422" maskUnits="userSpaceOnUse" x="0" y="1" width="29" height="37" fill="black">
<rect fill="white" y="1" width="29" height="37"/>
<path d="M14.576 36.384C12.208 36.384 9.904 36.016 7.664 35.28C5.456 34.544 3.648 33.552 2.24 32.304L4.448 28.512C5.568 29.568 7.024 30.432 8.816 31.104C10.608 31.776 12.528 32.112 14.576 32.112C17.072 32.112 19.008 31.584 20.384 30.528C21.792 29.44 22.496 27.984 22.496 26.16C22.496 24.4 21.824 22.992 20.48 21.936C19.168 20.848 17.072 20.304 14.192 20.304H11.504V16.944L21.488 4.656L22.16 6.576H3.776V2.4H25.952V5.664L16.016 17.904L13.52 16.416H15.104C19.168 16.416 22.208 17.328 24.224 19.152C26.272 20.976 27.296 23.296 27.296 26.112C27.296 28 26.832 29.728 25.904 31.296C24.976 32.864 23.568 34.112 21.68 35.04C19.824 35.936 17.456 36.384 14.576 36.384Z"/>
</mask>
<path d="M7.664 35.28L7.34777 36.2287L7.35185 36.23L7.664 35.28ZM2.24 32.304L1.37582 31.8008L0.963537 32.5089L1.57669 33.0523L2.24 32.304ZM4.448 28.512L5.13401 27.7844L4.2176 26.9204L3.58382 28.0088L4.448 28.512ZM8.816 31.104L9.16712 30.1677L8.816 31.104ZM20.384 30.528L20.9928 31.3213L20.9954 31.3193L20.384 30.528ZM20.48 21.936L19.8417 22.7058L19.8518 22.7142L19.8622 22.7223L20.48 21.936ZM11.504 20.304H10.504V21.304H11.504V20.304ZM11.504 16.944L10.7279 16.3134L10.504 16.589V16.944H11.504ZM21.488 4.656L22.4319 4.32565L21.8406 2.63625L20.7119 4.0254L21.488 4.656ZM22.16 6.576V7.576H23.5695L23.1039 6.24565L22.16 6.576ZM3.776 6.576H2.776V7.576H3.776V6.576ZM3.776 2.4V1.4H2.776V2.4H3.776ZM25.952 2.4H26.952V1.4H25.952V2.4ZM25.952 5.664L26.7284 6.29425L26.952 6.01879V5.664H25.952ZM16.016 17.904L15.5039 18.7629L16.2471 19.206L16.7924 18.5342L16.016 17.904ZM13.52 16.416V15.416H9.8897L13.0079 17.2749L13.52 16.416ZM24.224 19.152L23.5531 19.8936L23.5589 19.8988L24.224 19.152ZM25.904 31.296L26.7646 31.8053L25.904 31.296ZM21.68 35.04L22.1148 35.9406L22.1211 35.9375L21.68 35.04ZM14.576 35.384C12.3136 35.384 10.115 35.0327 7.97615 34.33L7.35185 36.23C9.69303 36.9993 12.1024 37.384 14.576 37.384V35.384ZM7.98023 34.3313C5.8708 33.6282 4.18942 32.6956 2.90331 31.5557L1.57669 33.0523C3.10658 34.4084 5.0412 35.4598 7.34777 36.2287L7.98023 34.3313ZM3.10418 32.8072L5.31218 29.0152L3.58382 28.0088L1.37582 31.8008L3.10418 32.8072ZM3.76199 29.2396C4.99907 30.406 6.57779 31.3327 8.46488 32.0403L9.16712 30.1677C7.47021 29.5313 6.13693 28.73 5.13401 27.7844L3.76199 29.2396ZM8.46488 32.0403C10.3768 32.7573 12.4165 33.112 14.576 33.112V31.112C12.6395 31.112 10.8392 30.7947 9.16712 30.1677L8.46488 32.0403ZM14.576 33.112C17.1986 33.112 19.3802 32.5589 20.9928 31.3213L19.7752 29.7347C18.6358 30.6091 16.9454 31.112 14.576 31.112V33.112ZM20.9954 31.3193C22.6556 30.0364 23.496 28.2846 23.496 26.16H21.496C21.496 27.6834 20.9284 28.8436 19.7726 29.7367L20.9954 31.3193ZM23.496 26.16C23.496 24.1038 22.6913 22.4017 21.0978 21.1497L19.8622 22.7223C20.9567 23.5823 21.496 24.6962 21.496 26.16H23.496ZM21.1183 21.1662C19.5393 19.8568 17.1579 19.304 14.192 19.304V21.304C16.9861 21.304 18.7967 21.8392 19.8417 22.7058L21.1183 21.1662ZM14.192 19.304H11.504V21.304H14.192V19.304ZM12.504 20.304V16.944H10.504V20.304H12.504ZM12.2801 17.5746L22.2641 5.28659L20.7119 4.0254L10.7279 16.3134L12.2801 17.5746ZM20.5441 4.98635L21.2161 6.90635L23.1039 6.24565L22.4319 4.32565L20.5441 4.98635ZM22.16 5.576H3.776V7.576H22.16V5.576ZM4.776 6.576V2.4H2.776V6.576H4.776ZM3.776 3.4H25.952V1.4H3.776V3.4ZM24.952 2.4V5.664H26.952V2.4H24.952ZM25.1756 5.03375L15.2396 17.2738L16.7924 18.5342L26.7284 6.29425L25.1756 5.03375ZM16.5281 17.0451L14.0321 15.5571L13.0079 17.2749L15.5039 18.7629L16.5281 17.0451ZM13.52 17.416H15.104V15.416H13.52V17.416ZM15.104 17.416C19.0397 17.416 21.7937 18.3017 23.5531 19.8935L24.8949 18.4105C22.6223 16.3543 19.2963 15.416 15.104 15.416V17.416ZM23.5589 19.8988C25.3874 21.5273 26.296 23.5726 26.296 26.112H28.296C28.296 23.0194 27.1566 20.4247 24.8891 18.4052L23.5589 19.8988ZM26.296 26.112C26.296 27.8276 25.8768 29.3786 25.0434 30.7867L26.7646 31.8053C27.7872 30.0774 28.296 28.1724 28.296 26.112H26.296ZM25.0434 30.7867C24.2291 32.1626 22.98 33.2868 21.2389 34.1426L22.1211 35.9375C24.156 34.9372 25.7229 33.5654 26.7646 31.8053L25.0434 30.7867ZM21.2453 34.1395C19.5676 34.9493 17.3616 35.384 14.576 35.384V37.384C17.5504 37.384 20.0804 36.9227 22.1147 35.9406L21.2453 34.1395Z" fill="#3C3C46" mask="url(#path-1-outside-1_117_11422)"/>
<path d="M12.576 34.384C10.208 34.384 7.904 34.016 5.664 33.28C3.456 32.544 1.648 31.552 0.24 30.304L2.448 26.512C3.568 27.568 5.024 28.432 6.816 29.104C8.608 29.776 10.528 30.112 12.576 30.112C15.072 30.112 17.008 29.584 18.384 28.528C19.792 27.44 20.496 25.984 20.496 24.16C20.496 22.4 19.824 20.992 18.48 19.936C17.168 18.848 15.072 18.304 12.192 18.304H9.504V14.944L19.488 2.656L20.16 4.576H1.776V0.399998H23.952V3.664L14.016 15.904L11.52 14.416H13.104C17.168 14.416 20.208 15.328 22.224 17.152C24.272 18.976 25.296 21.296 25.296 24.112C25.296 26 24.832 27.728 23.904 29.296C22.976 30.864 21.568 32.112 19.68 33.04C17.824 33.936 15.456 34.384 12.576 34.384Z" fill="#3C3C46"/>
</svg>
