<svg width="314" height="280" viewBox="0 0 314 280" fill="none" xmlns="http://www.w3.org/2000/svg">
<rect width="314" height="280" rx="10" fill="#F5F3F2"/>
<g filter="url(#filter0_d_143_14335)">
<rect x="31.7578" y="86.8555" width="252" height="157" rx="10" fill="white"/>
</g>
<path d="M47.7373 112.485C47.7373 111.95 47.5376 111.508 47.2024 111.237C46.8672 110.959 46.4107 110.816 45.8758 110.816H43.95V116.016H45.027V114.183H45.8401C46.3893 114.183 46.8529 114.04 47.1953 113.762C47.5447 113.491 47.7373 113.041 47.7373 112.485ZM46.6532 112.506C46.6532 112.991 46.2181 113.184 45.7902 113.184H45.027V111.829H45.783C45.9471 111.829 46.0826 111.85 46.211 111.893C46.4606 111.972 46.6532 112.186 46.6532 112.506ZM51.2144 116.016H52.3271L50.33 110.816H49.039L47.0491 116.016H48.1475L48.5612 114.903H50.8007L51.2144 116.016ZM49.6738 111.857L50.4299 113.904H48.9178L49.6738 111.857ZM54.205 113.912L56.1093 110.816H54.8826L53.6629 112.899L52.4647 110.816H51.2236L53.128 113.961V116.016H54.205V113.912ZM61.5297 116.016H62.5853V110.816H61.0946L59.6895 114.275L58.2559 110.816H56.8009V116.016H57.8565V112.492H57.8636L59.3258 116.016H60.0461L61.5154 112.471H61.5297V116.016ZM67.2245 116.016V115.01H64.8637V113.89H66.9606V112.884H64.8637V111.822H67.2031V110.816H63.801V116.016H67.2245ZM71.5338 116.016H72.7535V110.816H71.6908V114.332L69.4512 110.816H68.203V116.016H69.2657V112.442L71.5338 116.016ZM76.1315 111.857H77.6864V110.816H73.4997V111.857H75.0545V116.016H76.1315V111.857ZM84.3339 116.016H85.3895V110.816H83.8988L82.4937 114.275L81.0601 110.816H79.6051V116.016H80.6607V112.492H80.6678L82.13 116.016H82.8504L84.3196 112.471H84.3339V116.016ZM90.1571 116.016H91.2698L89.2727 110.816H87.9818L85.9918 116.016H87.0902L87.5039 114.903H89.7435L90.1571 116.016ZM88.6165 111.857L89.3726 113.904H87.8605L88.6165 111.857ZM92.9735 111.857H94.5284V110.816H90.3416V111.857H91.8965V116.016H92.9735V111.857ZM98.5293 116.016H99.5992V110.816H98.5293V112.87H96.3468V110.816H95.2769V116.016H96.3468V113.912H98.5293V116.016ZM100.493 113.419C100.493 114.924 101.684 116.094 103.182 116.094C103.553 116.094 103.903 116.023 104.238 115.88C104.573 115.745 104.858 115.552 105.101 115.31C105.343 115.074 105.536 114.782 105.679 114.446C105.821 114.118 105.893 113.769 105.893 113.398C105.893 113.027 105.821 112.678 105.686 112.35C105.543 112.021 105.351 111.736 105.115 111.501C104.873 111.265 104.587 111.08 104.259 110.944C103.924 110.802 103.575 110.738 103.204 110.738C102.84 110.738 102.49 110.809 102.155 110.944C101.82 111.087 101.528 111.273 101.285 111.515C101.043 111.75 100.85 112.036 100.707 112.371C100.565 112.706 100.493 113.056 100.493 113.419ZM101.806 112.592C101.948 112.342 102.141 112.143 102.383 112C102.633 111.85 102.904 111.779 103.197 111.779C104.074 111.765 104.816 112.528 104.794 113.412C104.794 113.705 104.723 113.983 104.587 114.233C104.445 114.482 104.252 114.682 104.002 114.832C103.76 114.981 103.489 115.053 103.197 115.053C102.904 115.053 102.633 114.981 102.383 114.832C102.141 114.682 101.948 114.482 101.806 114.233C101.67 113.983 101.599 113.705 101.599 113.412C101.599 113.12 101.67 112.842 101.806 112.592ZM111.313 113.405C111.313 112.592 111.049 111.957 110.528 111.501C110 111.044 109.287 110.816 108.374 110.816H106.784V116.016H108.353C109.258 116.016 110.022 115.745 110.528 115.288C111.027 114.839 111.313 114.175 111.313 113.405ZM110.207 113.405C110.207 113.912 110.043 114.304 109.708 114.582C109.38 114.86 108.938 114.996 108.388 114.996H107.853V111.829H108.403C109.423 111.829 110.207 112.378 110.207 113.405Z" fill="#D7D7D7"/>
<path d="M31.7578 212.855H283.758V233.855C283.758 239.378 279.281 243.855 273.758 243.855H41.7578C36.235 243.855 31.7578 239.378 31.7578 233.855V212.855Z" fill="#D9D9D9"/>
<path d="M54.5238 226.165V224.958H49.7578V226.277H51.3C51.7553 226.277 52.0526 226.435 52.1826 226.741H49.7578V227.54H52.164C52.0247 227.856 51.7088 228.014 51.3093 228.014H49.7578V229.296H51.0213L52.2291 231.73H53.7713L52.387 229.036C53.0838 228.757 53.4926 228.256 53.6133 227.54H54.5238V226.741H53.5948C53.5483 226.528 53.4461 226.342 53.2975 226.165H54.5238Z" fill="white"/>
<path d="M58.3472 231.73V224.958H57.1952L54.9004 226.305L55.5229 227.448L56.9536 226.63V231.73H58.3472Z" fill="white"/>
<path d="M59.5825 228.655C59.5825 229.64 59.7683 230.383 60.1492 230.866C60.3629 231.145 60.6509 231.368 61.0039 231.545C61.3569 231.73 61.7657 231.814 62.2302 231.814C62.8713 231.814 63.4937 231.591 63.9675 231.21C64.4414 230.82 64.7665 230.197 64.7665 229.464C64.7665 229.064 64.6736 228.692 64.4878 228.358C64.302 228.024 64.0326 227.754 63.6981 227.55C63.3544 227.355 62.9735 227.252 62.5554 227.252C61.9794 227.252 61.4405 227.485 61.0503 227.94C61.0875 227.494 61.2547 227.048 61.5427 226.714C61.8215 226.37 62.2674 226.147 62.7877 226.147C62.9549 226.147 63.1686 226.175 63.4101 226.24C63.6517 226.295 63.8561 226.379 64.0233 226.472L64.525 225.227C63.9861 224.986 63.4194 224.855 62.8062 224.855C61.8029 224.855 60.9667 225.255 60.4279 225.924C59.889 226.593 59.5825 227.54 59.5825 228.655ZM61.0596 229.473C61.0596 229.166 61.1711 228.906 61.4034 228.72C61.6264 228.525 61.8958 228.432 62.2116 228.432C62.5368 228.432 62.8155 228.525 63.0292 228.72C63.2429 228.915 63.3451 229.176 63.3451 229.482C63.3451 229.779 63.2336 230.04 63.0199 230.244C62.8062 230.448 62.5368 230.551 62.2209 230.551C61.9051 230.551 61.6356 230.448 61.4034 230.244C61.1711 230.03 61.0596 229.779 61.0596 229.473Z" fill="white"/>
<path d="M70.7353 228.051C70.7353 227.875 70.726 227.661 70.6609 227.178C70.6331 226.946 70.5773 226.704 70.4844 226.453C70.4008 226.203 70.2893 225.998 70.1593 225.831C69.9456 225.552 69.6576 225.32 69.3045 225.134C68.9422 224.948 68.5427 224.855 68.0875 224.855C67.4464 224.855 66.824 225.088 66.3502 225.469C65.8671 225.859 65.5512 226.491 65.5512 227.215C65.5512 227.615 65.6441 227.986 65.8299 228.33C66.0157 228.665 66.2759 228.934 66.6196 229.129C66.9541 229.333 67.335 229.436 67.753 229.436C68.3198 229.436 68.8958 229.203 69.286 228.748C69.2488 229.203 69.1001 229.631 68.8307 229.965C68.552 230.3 68.1154 230.523 67.5765 230.523C67.3814 230.523 67.1956 230.495 67.0098 230.458C66.8333 230.42 66.601 230.337 66.3223 230.197L65.8299 231.452C66.0622 231.572 66.313 231.665 66.5824 231.73C66.8519 231.786 67.1956 231.814 67.6044 231.814C68.6078 231.814 69.416 231.433 69.9456 230.773C70.4566 230.105 70.7353 229.176 70.7353 228.051ZM69.2581 227.215C69.2581 227.522 69.1373 227.782 68.905 227.977C68.6728 228.172 68.3941 228.274 68.0875 228.274C67.753 228.274 67.4836 228.172 67.2792 227.968C67.0655 227.773 66.9633 227.513 66.9633 227.197C66.9633 226.899 67.0748 226.639 67.2978 226.435C67.5208 226.221 67.7902 226.119 68.0968 226.119C68.4127 226.119 68.6821 226.221 68.9143 226.435C69.1466 226.649 69.2581 226.899 69.2581 227.215Z" fill="white"/>
<path d="M71.5943 228.339C71.5943 229.064 71.7336 229.742 72.0495 230.337C72.4862 231.21 73.313 231.814 74.4836 231.814C75.2454 231.814 75.905 231.535 76.3603 231.089C77.0478 230.42 77.4008 229.389 77.4008 228.302C77.4008 227.587 77.2614 226.909 76.9363 226.323C76.4903 225.459 75.6635 224.855 74.5115 224.855C73.5546 224.855 72.7742 225.274 72.3096 225.924C71.8451 226.583 71.5943 227.429 71.5943 228.339ZM73.0622 227.763C73.1272 227.373 73.2851 226.974 73.5081 226.686C73.7311 226.398 74.0934 226.193 74.5022 226.193C75.0132 226.193 75.4219 226.491 75.6449 226.927C75.8679 227.364 75.9794 227.856 75.9794 228.33C75.9794 229.222 75.5706 230.476 74.5022 230.476C73.8611 230.467 73.4338 230.03 73.2294 229.464C72.9971 228.897 72.96 228.321 73.0622 227.763Z" fill="white"/>
<path d="M219.664 228.43C219.664 223.94 223.304 220.301 227.793 220.301H269.6C274.09 220.301 277.729 223.94 277.729 228.43C277.729 232.92 274.09 236.559 269.6 236.559H227.793C223.304 236.559 219.664 232.92 219.664 228.43Z" fill="white"/>
<path d="M231.302 230.57V226.899H232.892C233.22 226.899 233.503 226.953 233.741 227.062C233.979 227.167 234.162 227.319 234.292 227.518C234.421 227.717 234.486 227.955 234.486 228.231C234.486 228.504 234.421 228.74 234.292 228.939C234.162 229.139 233.979 229.292 233.741 229.401C233.503 229.506 233.22 229.558 232.892 229.558H231.774L232.152 229.175V230.57H231.302ZM232.152 229.27L231.774 228.866H232.844C233.107 228.866 233.302 228.81 233.432 228.698C233.561 228.586 233.626 228.431 233.626 228.231C233.626 228.029 233.561 227.871 233.432 227.759C233.302 227.647 233.107 227.591 232.844 227.591H231.774L232.152 227.188V229.27ZM236.74 230.57V230.02L236.687 229.899V228.913C236.687 228.738 236.633 228.602 236.525 228.504C236.42 228.406 236.257 228.357 236.037 228.357C235.887 228.357 235.738 228.382 235.591 228.431C235.448 228.476 235.326 228.539 235.224 228.619L234.93 228.048C235.084 227.939 235.27 227.855 235.486 227.796C235.703 227.737 235.923 227.707 236.147 227.707C236.577 227.707 236.911 227.808 237.149 228.011C237.387 228.214 237.505 228.53 237.505 228.96V230.57H236.74ZM235.88 230.612C235.659 230.612 235.471 230.576 235.313 230.502C235.156 230.425 235.035 230.322 234.951 230.193C234.867 230.063 234.826 229.918 234.826 229.757C234.826 229.59 234.866 229.443 234.946 229.317C235.03 229.191 235.161 229.093 235.339 229.023C235.518 228.95 235.75 228.913 236.037 228.913H236.787V229.39H236.126C235.934 229.39 235.801 229.422 235.728 229.485C235.658 229.548 235.623 229.626 235.623 229.721C235.623 229.826 235.663 229.91 235.743 229.972C235.827 230.032 235.941 230.062 236.084 230.062C236.221 230.062 236.343 230.03 236.451 229.967C236.56 229.901 236.638 229.805 236.687 229.679L236.813 230.056C236.754 230.238 236.645 230.376 236.488 230.471C236.331 230.565 236.128 230.612 235.88 230.612ZM238.551 231.63C238.404 231.63 238.259 231.607 238.116 231.562C237.973 231.516 237.856 231.453 237.765 231.373L238.064 230.791C238.126 230.847 238.198 230.89 238.279 230.922C238.362 230.953 238.445 230.969 238.525 230.969C238.64 230.969 238.731 230.941 238.798 230.885C238.868 230.833 238.931 230.743 238.987 230.618L239.133 230.271L239.196 230.182L240.209 227.749H240.995L239.721 230.743C239.63 230.971 239.525 231.149 239.406 231.278C239.291 231.408 239.161 231.499 239.018 231.551C238.878 231.603 238.723 231.63 238.551 231.63ZM239.034 230.68L237.775 227.749H238.619L239.595 230.109L239.034 230.68ZM244.942 227.707C245.166 227.707 245.364 227.752 245.535 227.843C245.71 227.931 245.846 228.067 245.944 228.252C246.046 228.434 246.096 228.668 246.096 228.955V230.57H245.278V229.081C245.278 228.854 245.231 228.686 245.136 228.577C245.042 228.469 244.909 228.415 244.738 228.415C244.619 228.415 244.512 228.443 244.418 228.499C244.324 228.551 244.25 228.632 244.198 228.74C244.145 228.848 244.119 228.986 244.119 229.154V230.57H243.301V229.081C243.301 228.854 243.254 228.686 243.159 228.577C243.068 228.469 242.937 228.415 242.766 228.415C242.647 228.415 242.54 228.443 242.446 228.499C242.352 228.551 242.278 228.632 242.226 228.74C242.173 228.848 242.147 228.986 242.147 229.154V230.57H241.329V227.749H242.11V228.52L241.964 228.294C242.062 228.102 242.2 227.957 242.378 227.859C242.56 227.758 242.766 227.707 242.997 227.707C243.255 227.707 243.481 227.773 243.673 227.906C243.869 228.036 243.998 228.235 244.061 228.504L243.773 228.425C243.867 228.205 244.018 228.03 244.224 227.901C244.434 227.772 244.673 227.707 244.942 227.707ZM248.25 230.612C247.929 230.612 247.645 230.549 247.401 230.423C247.159 230.298 246.972 230.126 246.84 229.91C246.707 229.689 246.64 229.439 246.64 229.16C246.64 228.876 246.705 228.626 246.834 228.41C246.967 228.189 247.147 228.018 247.374 227.896C247.602 227.77 247.859 227.707 248.145 227.707C248.422 227.707 248.67 227.766 248.89 227.885C249.114 228.001 249.29 228.168 249.42 228.389C249.549 228.605 249.614 228.866 249.614 229.17C249.614 229.202 249.612 229.238 249.609 229.28C249.605 229.319 249.602 229.355 249.598 229.39H247.306V228.913H249.168L248.853 229.055C248.853 228.908 248.824 228.78 248.764 228.672C248.705 228.563 248.623 228.48 248.518 228.42C248.413 228.357 248.29 228.326 248.151 228.326C248.011 228.326 247.887 228.357 247.778 228.42C247.673 228.48 247.591 228.565 247.532 228.677C247.472 228.785 247.443 228.915 247.443 229.065V229.191C247.443 229.345 247.476 229.481 247.542 229.6C247.612 229.715 247.708 229.805 247.831 229.868C247.957 229.927 248.103 229.957 248.271 229.957C248.422 229.957 248.553 229.934 248.665 229.889C248.78 229.843 248.885 229.775 248.979 229.684L249.415 230.156C249.285 230.303 249.123 230.416 248.927 230.497C248.731 230.574 248.506 230.612 248.25 230.612ZM251.873 227.707C252.097 227.707 252.296 227.752 252.471 227.843C252.65 227.931 252.789 228.067 252.891 228.252C252.992 228.434 253.043 228.668 253.043 228.955V230.57H252.225V229.081C252.225 228.854 252.174 228.686 252.073 228.577C251.975 228.469 251.835 228.415 251.653 228.415C251.524 228.415 251.407 228.443 251.302 228.499C251.2 228.551 251.12 228.633 251.061 228.745C251.005 228.857 250.977 229 250.977 229.175V230.57H250.159V227.749H250.94V228.53L250.793 228.294C250.894 228.105 251.04 227.96 251.228 227.859C251.417 227.758 251.632 227.707 251.873 227.707ZM254.938 230.612C254.606 230.612 254.347 230.528 254.162 230.361C253.977 230.189 253.884 229.936 253.884 229.6V227.125H254.702V229.59C254.702 229.708 254.734 229.801 254.797 229.868C254.86 229.93 254.945 229.962 255.054 229.962C255.183 229.962 255.293 229.927 255.384 229.857L255.604 230.434C255.52 230.493 255.419 230.539 255.3 230.57C255.185 230.598 255.064 230.612 254.938 230.612ZM253.449 228.441V227.812H255.405V228.441H253.449ZM259.264 227.707C259.488 227.707 259.687 227.752 259.862 227.843C260.04 227.931 260.18 228.067 260.281 228.252C260.383 228.434 260.433 228.668 260.433 228.955V230.57H259.615V229.081C259.615 228.854 259.564 228.686 259.463 228.577C259.365 228.469 259.225 228.415 259.044 228.415C258.914 228.415 258.797 228.443 258.692 228.499C258.591 228.551 258.51 228.633 258.451 228.745C258.395 228.857 258.367 229 258.367 229.175V230.57H257.549V227.749H258.33V228.53L258.183 228.294C258.285 228.105 258.43 227.96 258.619 227.859C258.808 227.758 259.023 227.707 259.264 227.707ZM262.538 230.612C262.237 230.612 261.97 230.549 261.736 230.423C261.505 230.298 261.321 230.126 261.185 229.91C261.052 229.689 260.986 229.439 260.986 229.16C260.986 228.876 261.052 228.626 261.185 228.41C261.321 228.189 261.505 228.018 261.736 227.896C261.97 227.77 262.237 227.707 262.538 227.707C262.835 227.707 263.101 227.77 263.335 227.896C263.569 228.018 263.753 228.188 263.886 228.404C264.019 228.621 264.085 228.873 264.085 229.16C264.085 229.439 264.019 229.689 263.886 229.91C263.753 230.126 263.569 230.298 263.335 230.423C263.101 230.549 262.835 230.612 262.538 230.612ZM262.538 229.941C262.674 229.941 262.797 229.91 262.905 229.847C263.013 229.784 263.099 229.694 263.162 229.579C263.225 229.46 263.256 229.32 263.256 229.16C263.256 228.995 263.225 228.855 263.162 228.74C263.099 228.625 263.013 228.535 262.905 228.473C262.797 228.41 262.674 228.378 262.538 228.378C262.402 228.378 262.279 228.41 262.171 228.473C262.062 228.535 261.975 228.625 261.909 228.74C261.846 228.855 261.814 228.995 261.814 229.16C261.814 229.32 261.846 229.46 261.909 229.579C261.975 229.694 262.062 229.784 262.171 229.847C262.279 229.91 262.402 229.941 262.538 229.941ZM265.2 230.57L264.183 227.749H264.954L265.798 230.177H265.431L266.312 227.749H267.004L267.859 230.177H267.492L268.363 227.749H269.086L268.064 230.57H267.272L266.522 228.488H266.763L265.987 230.57H265.2Z" fill="black"/>
<path d="M137.985 111.857H139.54V110.816H135.354V111.857H136.908V116.016H137.985V111.857ZM139.571 113.419C139.571 114.924 140.762 116.094 142.26 116.094C142.631 116.094 142.98 116.023 143.315 115.88C143.651 115.745 143.936 115.552 144.178 115.31C144.421 115.074 144.614 114.782 144.756 114.446C144.899 114.118 144.97 113.769 144.97 113.398C144.97 113.027 144.899 112.678 144.763 112.35C144.621 112.021 144.428 111.736 144.193 111.501C143.95 111.265 143.665 111.08 143.337 110.944C143.002 110.802 142.652 110.738 142.281 110.738C141.917 110.738 141.568 110.809 141.233 110.944C140.898 111.087 140.605 111.273 140.363 111.515C140.12 111.75 139.928 112.036 139.785 112.371C139.642 112.706 139.571 113.056 139.571 113.419ZM140.883 112.592C141.026 112.342 141.218 112.143 141.461 112C141.711 111.85 141.982 111.779 142.274 111.779C143.151 111.765 143.893 112.528 143.872 113.412C143.872 113.705 143.8 113.983 143.665 114.233C143.522 114.482 143.33 114.682 143.08 114.832C142.838 114.981 142.567 115.053 142.274 115.053C141.982 115.053 141.711 114.981 141.461 114.832C141.218 114.682 141.026 114.482 140.883 114.233C140.748 113.983 140.676 113.705 140.676 113.412C140.676 113.12 140.748 112.842 140.883 112.592ZM147.653 111.857H149.208V110.816H145.021V111.857H146.576V116.016H147.653V111.857ZM152.45 116.016H153.563L151.565 110.816H150.274L148.285 116.016H149.383L149.797 114.903H152.036L152.45 116.016ZM150.909 111.857L151.665 113.904H150.153L150.909 111.857ZM157.452 116.016V114.989H155.227V110.816H154.157V116.016H157.452ZM163.112 112.485C163.112 111.95 162.913 111.508 162.577 111.237C162.242 110.959 161.786 110.816 161.251 110.816H159.325V116.016H160.402V114.183H161.215C161.764 114.183 162.228 114.04 162.57 113.762C162.92 113.491 163.112 113.041 163.112 112.485ZM162.028 112.506C162.028 112.991 161.593 113.184 161.165 113.184H160.402V111.829H161.158C161.322 111.829 161.458 111.85 161.586 111.893C161.836 111.972 162.028 112.186 162.028 112.506ZM166.589 116.016H167.702L165.705 110.816H164.414L162.424 116.016H163.522L163.936 114.903H166.176L166.589 116.016ZM165.049 111.857L165.805 113.904H164.293L165.049 111.857ZM169.58 113.912L171.484 110.816H170.257L169.038 112.899L167.84 110.816H166.599L168.503 113.961V116.016H169.58V113.912ZM176.905 116.016H177.96V110.816H176.47L175.064 114.275L173.631 110.816H172.176V116.016H173.231V112.492H173.239L174.701 116.016H175.421L176.89 112.471H176.905V116.016ZM182.599 116.016V115.01H180.239V113.89H182.336V112.884H180.239V111.822H182.578V110.816H179.176V116.016H182.599ZM186.909 116.016H188.128V110.816H187.066V114.332L184.826 110.816H183.578V116.016H184.641V112.442L186.909 116.016ZM191.506 111.857H193.061V110.816H188.875V111.857H190.429V116.016H191.506V111.857Z" fill="#D7D7D7"/>
<rect x="134.336" y="122.254" width="82.1626" height="3.49628" fill="#D9D9D9"/>
<rect x="245.344" y="122.254" width="29.7184" height="6.99256" fill="#D9D9D9"/>
<rect x="134.336" y="127.496" width="52.4442" height="1.74814" fill="#D9D9D9"/>
<rect x="134.336" y="133.617" width="82.1626" height="3.49628" fill="#D9D9D9"/>
<rect x="245.344" y="133.617" width="29.7184" height="6.99256" fill="#D9D9D9"/>
<rect x="134.336" y="138.861" width="52.4442" height="1.74814" fill="#D9D9D9"/>
<rect x="133.758" y="144.855" width="82.1626" height="3.49628" fill="#D9D9D9"/>
<rect x="244.766" y="144.855" width="29.7184" height="6.99256" fill="#D9D9D9"/>
<rect x="133.758" y="150.1" width="52.4442" height="1.74814" fill="#D9D9D9"/>
<rect x="134.336" y="166.727" width="82.1626" height="3.49628" fill="#9A9A9A"/>
<rect x="245.344" y="166.727" width="29.7184" height="6.99256" fill="#9A9A9A"/>
<rect x="134.336" y="171.973" width="52.4442" height="1.74814" fill="#9A9A9A"/>
<rect x="39.7578" y="139.855" width="80" height="16" rx="2.62221" fill="#FFE8E8"/>
<rect x="58.2031" y="144.977" width="46.3257" height="3.49628" fill="white"/>
<rect x="58.2031" y="150.221" width="29.7184" height="1.74814" fill="white"/>
<circle cx="49.8993" cy="148.036" r="6.55553" fill="white"/>
<g clip-path="url(#clip0_143_14335)">
<path d="M53.4119 145.363C52.8476 145.254 51.9378 145.107 51.6836 145.613C50.9067 146.893 50.4607 148.233 50.125 148.808C50.1603 148.827 51.7076 149.681 51.817 149.732C52.1649 149.893 52.7457 149.82 52.9931 149.396C53.6794 148.218 53.505 148.525 54.2342 147.323C54.7055 146.546 54.1163 145.498 53.4119 145.363Z" fill="#EA4335"/>
<path d="M48.5273 150.56C48.1484 150.148 47.8705 149.322 48.2034 148.86C49.176 147.257 49.9546 146.287 50.5669 145.314C50.8916 145.493 52.1926 146.195 52.2792 146.267C52.5699 146.51 52.8107 146.973 52.548 147.39C51.8191 148.544 51.5201 149.067 50.7793 150.287C50.3079 151.064 49.0007 151.075 48.5273 150.56Z" fill="#FDBD00"/>
<path d="M52.0193 144.544C51.2613 144.122 50.8717 144.178 50.4641 144.24C50.0935 144.328 49.5924 144.584 49.3812 144.913C48.8484 145.744 48.3437 146.566 47.6898 147.679C47.4885 148.022 47.6379 148.443 47.8238 148.611C47.9497 148.724 48.8764 149.21 49.0474 149.28C49.2892 149.379 49.6515 149.31 49.8701 149.096C49.9304 149.037 51.3129 146.778 51.7022 146.112C51.8665 145.83 52.0145 145.675 52.2603 145.525C52.735 145.288 53.1056 145.257 53.6734 145.455C53.6734 145.455 52.4378 144.773 52.0193 144.544Z" fill="#2DA94F"/>
<path d="M47.1472 149.846C46.3846 149.433 46.2401 149.084 46.0929 148.717C45.9878 148.368 45.9705 147.827 46.1645 147.488C46.654 146.634 46.6505 146.629 47.3371 145.534C47.5486 145.196 48.0068 145.109 48.252 145.178C48.4181 145.225 49.3242 145.746 49.4734 145.852C49.6844 146.002 49.8029 146.335 49.7173 146.622C49.6937 146.701 48.8275 148.147 48.4157 148.801C48.2419 149.077 48.1743 149.277 48.1606 149.555C48.1822 150.064 48.3397 150.385 48.8034 150.754C48.8034 150.754 47.5653 150.077 47.1472 149.846Z" fill="#297AEC"/>
</g>
<rect x="58.2109" y="127.496" width="46.3257" height="3.49628" fill="#D9D9D9"/>
<rect x="58.2031" y="132.74" width="29.7184" height="1.74814" fill="#D9D9D9"/>
<circle cx="49.8993" cy="130.556" r="6.55553" fill="#5F259F"/>
<path d="M49.72 136.192C52.7021 136.192 55.1196 133.774 55.1196 130.792C55.1196 127.81 52.7021 125.393 49.72 125.393C46.7378 125.393 44.3203 127.81 44.3203 130.792C44.3203 133.774 46.7378 136.192 49.72 136.192Z" fill="#5F259F"/>
<path d="M52.175 129.383C52.175 129.172 51.994 128.991 51.7829 128.991H51.059L49.3999 127.09C49.2491 126.909 49.0078 126.849 48.7665 126.909L48.1934 127.09C48.1029 127.121 48.0727 127.241 48.1331 127.301L49.943 129.021H47.1977C47.1072 129.021 47.0469 129.081 47.0469 129.172V129.473C47.0469 129.684 47.2279 129.865 47.439 129.865H47.8613V131.313C47.8613 132.399 48.4344 133.033 49.3998 133.033C49.7014 133.033 49.9428 133.003 50.2444 132.882V133.847C50.2444 134.119 50.4555 134.33 50.727 134.33H51.1493C51.2399 134.33 51.3304 134.24 51.3304 134.149V129.835H52.0242C52.1147 129.835 52.175 129.775 52.175 129.685V129.383ZM50.2444 131.977C50.0634 132.068 49.8221 132.098 49.6411 132.098C49.1585 132.098 48.9172 131.856 48.9172 131.313V129.865H50.2444V131.977Z" fill="white"/>
<rect x="58.2109" y="162.457" width="46.3257" height="3.49628" fill="#D9D9D9"/>
<rect x="58.2031" y="167.703" width="29.7184" height="1.74814" fill="#D9D9D9"/>
<circle cx="49.8993" cy="165.518" r="6.55553" fill="#FF9900"/>
<g clip-path="url(#clip1_143_14335)">
<path d="M52.5095 167.875C49.387 169.361 47.4491 168.117 46.2086 167.362C46.1319 167.315 46.0014 167.373 46.1146 167.503C46.5279 168.004 47.8823 169.212 49.6501 169.212C51.4192 169.212 52.4716 168.247 52.6033 168.078C52.734 167.912 52.6417 167.819 52.5095 167.875H52.5095ZM53.3865 167.39C53.3026 167.281 52.8766 167.261 52.6085 167.294C52.34 167.326 51.9369 167.49 51.9719 167.588C51.9899 167.625 52.0266 167.609 52.2111 167.592C52.3961 167.574 52.9143 167.508 53.0222 167.649C53.1307 167.791 52.857 168.469 52.807 168.578C52.7587 168.687 52.8254 168.715 52.9162 168.642C53.0056 168.57 53.1677 168.381 53.2764 168.115C53.3843 167.847 53.4502 167.473 53.3865 167.39Z" fill="white"/>
<path fill-rule="evenodd" clip-rule="evenodd" d="M50.4022 164.842C50.4022 165.232 50.4121 165.557 50.215 165.903C50.0559 166.185 49.8039 166.358 49.5224 166.358C49.1381 166.358 48.9143 166.065 48.9143 165.633C48.9143 164.78 49.6786 164.625 50.4022 164.625V164.842ZM51.4115 167.281C51.3453 167.341 51.2496 167.345 51.175 167.305C50.8428 167.029 50.7837 166.901 50.6007 166.638C50.0517 167.198 49.6632 167.366 48.9509 167.366C48.1091 167.366 47.4531 166.846 47.4531 165.806C47.4531 164.994 47.8938 164.441 48.5201 164.17C49.0635 163.931 49.8223 163.889 50.4022 163.823V163.693C50.4022 163.455 50.4205 163.174 50.2812 162.968C50.1587 162.784 49.925 162.708 49.7195 162.708C49.338 162.708 48.9973 162.904 48.9143 163.309C48.8974 163.399 48.8312 163.488 48.7412 163.492L47.7698 163.388C47.6882 163.369 47.5981 163.303 47.6207 163.178C47.8445 162.001 48.9072 161.646 49.8588 161.646C50.3459 161.646 50.9821 161.776 51.3664 162.145C51.8535 162.599 51.807 163.206 51.807 163.866V165.426C51.807 165.895 52.0013 166.1 52.1843 166.354C52.249 166.444 52.2631 166.552 52.1815 166.62C51.9774 166.79 51.6142 167.107 51.4143 167.284L51.4115 167.281" fill="white"/>
<path d="M52.5095 167.875C49.387 169.361 47.4491 168.117 46.2086 167.362C46.1319 167.315 46.0014 167.373 46.1146 167.503C46.5279 168.004 47.8823 169.212 49.6501 169.212C51.4192 169.212 52.4716 168.247 52.6033 168.078C52.734 167.912 52.6417 167.819 52.5095 167.875H52.5095ZM53.3865 167.39C53.3026 167.281 52.8766 167.261 52.6085 167.294C52.34 167.326 51.9369 167.49 51.9719 167.588C51.9899 167.625 52.0266 167.609 52.2111 167.592C52.3961 167.574 52.9143 167.508 53.0222 167.649C53.1307 167.791 52.857 168.469 52.807 168.578C52.7587 168.687 52.8254 168.715 52.9162 168.642C53.0056 168.57 53.1677 168.381 53.2764 168.115C53.3843 167.847 53.4502 167.473 53.3865 167.39Z" fill="white"/>
<path fill-rule="evenodd" clip-rule="evenodd" d="M50.4022 164.842C50.4022 165.232 50.4121 165.557 50.215 165.903C50.0559 166.185 49.8039 166.358 49.5224 166.358C49.1381 166.358 48.9143 166.065 48.9143 165.633C48.9143 164.78 49.6786 164.625 50.4022 164.625V164.842ZM51.4115 167.281C51.3453 167.341 51.2496 167.345 51.175 167.305C50.8428 167.029 50.7837 166.901 50.6007 166.638C50.0517 167.198 49.6632 167.366 48.9509 167.366C48.1091 167.366 47.4531 166.846 47.4531 165.806C47.4531 164.994 47.8938 164.441 48.5201 164.17C49.0635 163.931 49.8223 163.889 50.4022 163.823V163.693C50.4022 163.455 50.4205 163.174 50.2812 162.968C50.1587 162.784 49.925 162.708 49.7195 162.708C49.338 162.708 48.9973 162.904 48.9143 163.309C48.8974 163.399 48.8312 163.488 48.7412 163.492L47.7698 163.388C47.6882 163.369 47.5981 163.303 47.6207 163.178C47.8445 162.001 48.9072 161.646 49.8588 161.646C50.3459 161.646 50.9821 161.776 51.3664 162.145C51.8535 162.599 51.807 163.206 51.807 163.866V165.426C51.807 165.895 52.0013 166.1 52.1843 166.354C52.249 166.444 52.2631 166.552 52.1815 166.62C51.9774 166.79 51.6142 167.107 51.4143 167.284L51.4115 167.281" fill="white"/>
</g>
<rect x="58.2031" y="179.941" width="46.3257" height="3.49628" fill="#D9D9D9"/>
<rect x="58.2109" y="185.186" width="29.7184" height="1.74814" fill="#D9D9D9"/>
<circle cx="49.8993" cy="183.001" r="6.47839" fill="#F9F9F9" stroke="#E9E9E9" stroke-width="0.154276"/>
<path d="M51.1386 185.009H48.7578V180.73H51.1387L51.1386 185.009Z" fill="#FF5F00"/>
<path d="M48.9021 182.87C48.9021 182.002 49.3085 181.228 49.9413 180.73C49.4623 180.353 48.8698 180.148 48.2598 180.148C46.7572 180.148 45.5391 181.367 45.5391 182.87C45.5391 184.372 46.7572 185.591 48.2598 185.591C48.8699 185.592 49.4623 185.387 49.9414 185.009C49.3086 184.511 48.9021 183.738 48.9021 182.87Z" fill="#EB001B"/>
<path d="M54.34 182.87C54.34 184.372 53.1219 185.591 51.6192 185.591C51.0092 185.592 50.4166 185.387 49.9375 185.009C50.5705 184.511 50.9769 183.738 50.9769 182.87C50.9769 182.002 50.5705 181.228 49.9375 180.73C50.4166 180.353 51.0091 180.148 51.6192 180.148C53.1219 180.148 54.34 181.367 54.34 182.87" fill="#F79E1B"/>
<path d="M83.1198 47.4766V38.0366H79.4078V36.2766H88.9118V38.0366H85.1998V47.4766H83.1198ZM90.4728 47.4766V36.2766H92.5528V47.4766H90.4728ZM95.5821 47.4766V36.2766H97.2941L102.19 44.4526H101.294L106.11 36.2766H107.822L107.838 47.4766H105.87L105.854 39.3646H106.27L102.174 46.1966H101.246L97.0861 39.3646H97.5661V47.4766H95.5821ZM112.783 40.9326H118.351V42.6446H112.783V40.9326ZM112.943 45.7326H119.263V47.4766H110.863V36.2766H119.039V38.0206H112.943V45.7326ZM121.582 47.4766V36.2766H123.662V45.7166H129.518V47.4766H121.582ZM132.74 47.4766V43.0446L133.204 44.3246L128.34 36.2766H130.564L134.468 42.7566H133.22L137.156 36.2766H139.204L134.34 44.3246L134.82 43.0446V47.4766H132.74ZM144.988 47.4766V36.2766H149.596C150.588 36.2766 151.436 36.4366 152.14 36.7566C152.855 37.0766 153.404 37.5352 153.788 38.1326C154.172 38.7299 154.364 39.4392 154.364 40.2606C154.364 41.0819 154.172 41.7912 153.788 42.3886C153.404 42.9859 152.855 43.4446 152.14 43.7646C151.436 44.0846 150.588 44.2446 149.596 44.2446H146.14L147.068 43.2686V47.4766H144.988ZM147.068 43.4926L146.14 42.4846H149.5C150.418 42.4846 151.106 42.2926 151.564 41.9086C152.034 41.5139 152.268 40.9646 152.268 40.2606C152.268 39.5459 152.034 38.9966 151.564 38.6126C151.106 38.2286 150.418 38.0366 149.5 38.0366H146.14L147.068 37.0126V43.4926ZM154.295 47.4766L159.335 36.2766H161.383L166.439 47.4766H164.263L159.927 37.3806H160.759L156.439 47.4766H154.295ZM156.615 44.8846L157.175 43.2526H163.223L163.783 44.8846H156.615ZM169.944 47.4766V43.0446L170.408 44.3246L165.543 36.2766H167.768L171.672 42.7566H170.424L174.36 36.2766H176.408L171.544 44.3246L172.024 43.0446V47.4766H169.944ZM177.629 47.4766V36.2766H179.341L184.237 44.4526H183.341L188.157 36.2766H189.869L189.885 47.4766H187.917L187.901 39.3646H188.317L184.221 46.1966H183.293L179.133 39.3646H179.613V47.4766H177.629ZM194.83 40.9326H200.398V42.6446H194.83V40.9326ZM194.99 45.7326H201.31V47.4766H192.91V36.2766H201.086V38.0206H194.99V45.7326ZM203.629 47.4766V36.2766H205.341L212.365 44.9006H211.517V36.2766H213.581V47.4766H211.869L204.845 38.8526H205.693V47.4766H203.629ZM218.854 47.4766V38.0366H215.142V36.2766H224.646V38.0366H220.934V47.4766H218.854ZM229.57 47.6366C228.695 47.6366 227.858 47.5139 227.058 47.2686C226.258 47.0126 225.623 46.6872 225.154 46.2926L225.874 44.6766C226.322 45.0286 226.876 45.3219 227.538 45.5566C228.199 45.7912 228.876 45.9086 229.57 45.9086C230.156 45.9086 230.631 45.8446 230.994 45.7166C231.356 45.5886 231.623 45.4179 231.794 45.2046C231.964 44.9806 232.05 44.7299 232.05 44.4526C232.05 44.1112 231.927 43.8392 231.682 43.6366C231.436 43.4232 231.116 43.2579 230.722 43.1406C230.338 43.0126 229.906 42.8952 229.426 42.7886C228.956 42.6819 228.482 42.5592 228.002 42.4206C227.532 42.2712 227.1 42.0846 226.706 41.8606C226.322 41.6259 226.007 41.3166 225.762 40.9326C225.516 40.5486 225.394 40.0579 225.394 39.4606C225.394 38.8526 225.554 38.2979 225.874 37.7966C226.204 37.2846 226.7 36.8792 227.362 36.5806C228.034 36.2712 228.882 36.1166 229.906 36.1166C230.578 36.1166 231.244 36.2019 231.906 36.3726C232.567 36.5432 233.143 36.7886 233.634 37.1086L232.978 38.7246C232.476 38.4259 231.959 38.2072 231.426 38.0686C230.892 37.9192 230.38 37.8446 229.89 37.8446C229.314 37.8446 228.844 37.9139 228.482 38.0526C228.13 38.1912 227.868 38.3726 227.698 38.5966C227.538 38.8206 227.458 39.0766 227.458 39.3646C227.458 39.7059 227.575 39.9832 227.81 40.1966C228.055 40.3992 228.37 40.5592 228.754 40.6766C229.148 40.7939 229.586 40.9112 230.066 41.0286C230.546 41.1352 231.02 41.2579 231.49 41.3966C231.97 41.5352 232.402 41.7166 232.786 41.9406C233.18 42.1646 233.495 42.4686 233.73 42.8526C233.975 43.2366 234.098 43.7219 234.098 44.3086C234.098 44.9059 233.932 45.4606 233.602 45.9726C233.282 46.4739 232.786 46.8792 232.114 47.1886C231.442 47.4872 230.594 47.6366 229.57 47.6366Z" fill="#FF5612"/>
<defs>
<filter id="filter0_d_143_14335" x="22.7578" y="77.8555" width="270" height="175" filterUnits="userSpaceOnUse" color-interpolation-filters="sRGB">
<feFlood flood-opacity="0" result="BackgroundImageFix"/>
<feColorMatrix in="SourceAlpha" type="matrix" values="0 0 0 0 0 0 0 0 0 0 0 0 0 0 0 0 0 0 127 0" result="hardAlpha"/>
<feMorphology radius="3" operator="dilate" in="SourceAlpha" result="effect1_dropShadow_143_14335"/>
<feOffset/>
<feGaussianBlur stdDeviation="3"/>
<feComposite in2="hardAlpha" operator="out"/>
<feColorMatrix type="matrix" values="0 0 0 0 0 0 0 0 0 0 0 0 0 0 0 0 0 0 0.04 0"/>
<feBlend mode="normal" in2="BackgroundImageFix" result="effect1_dropShadow_143_14335"/>
<feBlend mode="normal" in="SourceGraphic" in2="effect1_dropShadow_143_14335" result="shape"/>
</filter>
<clipPath id="clip0_143_14335">
<rect width="8.74071" height="6.99256" fill="white" transform="translate(45.9688 144.104)"/>
</clipPath>
<clipPath id="clip1_143_14335">
<rect width="7.71379" height="7.71379" fill="white" transform="translate(45.8672 161.648)"/>
</clipPath>
</defs>
</svg>
